<?xml version="1.0" encoding="UTF-8" standalone="no"?>
<svg
   width="55"
   height="55"
   viewBox="0 0 55 55"
   fill="none"
   version="1.1"
   id="svg1622"
   sodipodi:docname="dragon.svg"
   inkscape:version="1.1.2 (b8e25be833, 2022-02-05)"
   xmlns:inkscape="http://www.inkscape.org/namespaces/inkscape"
   xmlns:sodipodi="http://sodipodi.sourceforge.net/DTD/sodipodi-0.dtd"
   xmlns="http://www.w3.org/2000/svg"
   xmlns:svg="http://www.w3.org/2000/svg">
  <defs
     id="defs1626" />
  <sodipodi:namedview
     id="namedview1624"
     pagecolor="#ffffff"
     bordercolor="#666666"
     borderopacity="1.0"
     inkscape:pageshadow="2"
     inkscape:pageopacity="0.0"
     inkscape:pagecheckerboard="0"
     showgrid="false"
     inkscape:zoom="5.459374"
     inkscape:cx="34.802525"
     inkscape:cy="39.198634"
     inkscape:window-width="1920"
     inkscape:window-height="1017"
     inkscape:window-x="-8"
     inkscape:window-y="-8"
     inkscape:window-maximized="1"
     inkscape:current-layer="svg1622" />
  <path
     d="m 32.513835,53.945572 c -2.7981,-0.1941 -5.265,-1.2797 -7.0361,-3.0966 -0.7671,-0.7869 -0.7767,-0.7926 -0.8959,-0.5309 -0.153,0.3357 -0.4949,0.3435 -1.2483,0.0285 -0.9396,-0.3928 -0.9782,-0.4526 -0.8911,-1.3818 0.0863,-0.921 -0.0446,-0.9739 -0.3244,-0.1313 -0.2604,0.7838 -0.354,0.8304 -1.2272,0.6112 -1.0671,-0.2678 -1.1166,-0.3355 -1.1138,-1.5193 0.0027,-1.1191 0.2028,-1.7188 0.7056,-2.1142 0.3811,-0.2999 0.2381,-0.5143 -0.4148,-0.622 -0.6963,-0.1148 -1.0191,-0.3556 -1.7193,-1.2822 -0.8546,-1.1311 -0.8546,-1.3031 -0.0012,-3.7519 l 0.6415,-1.8405 -0.3781,-0.3017 c -1.0162,-0.8108 -2.1506,-2.9082 -2.6406,-4.882 l -0.3032,-1.2215 -0.4776,-0.2389 c -0.581,-0.2906 -2.0669,-0.643 -3.0605,-0.7257 l -0.7318,-0.061 -0.2186,0.4943 c -0.3289,0.7435 -0.8152,1.2943 -1.5962004,1.8077 -0.5113,0.3362 -0.8251,0.6491 -1.148,1.1447 -0.4277,0.6565 -0.4612,0.6819 -0.8943,0.6794 -1.0208,-0.0061 -1.9753,-0.3403 -2.1972,-0.7694 -0.2991,-0.5783 -0.1291,-4.3476 0.2721,-6.0371 0.4927,-2.0743 1.4545,-3.8718 2.53,-4.7281 0.6659,-0.5302 1.0192,-0.6444 1.257,-0.4066 0.1888,0.1888 0.3393,0.9401 0.3492,1.7435 0.0057,0.4576 0.032,0.5165 0.2061,0.4612 0.1097004,-0.0349 0.4332004,-0.0735 0.7187004,-0.086 0.5785,-0.0251 0.8854,0.2226 0.7737,0.6246 -0.1986,0.7149 -0.2743,0.6478 0.8858,0.7857 0.5857,0.0696 1.0869,0.1045 1.1139,0.0775 0.1829,-0.1829 -1.7921,-4.3 -2.9177,-6.0823 -1.6282004,-2.5779 -4.0156004,-5.215 -5.9701004,-6.5946 -0.8446,-0.5961 -2.9865,-1.874601 -3.3355,-1.990901 -0.1569,-0.0523 -0.38770003,-1.5446 -0.39100003,-2.5276996 -0.0133,-4.0187 2.45860003,-7.1497 6.60530003,-8.3667 0.5289,-0.15520002 0.5848,-0.15320002 0.8093,0.0286 l 0.2412,0.1954 -0.1974,0.8383 c -0.4065,1.7263 -0.0412,3.0561 1.1589,4.2185 1.1210004,1.0858 3.2308004,1.9877 5.6950004,2.4343 0.5988,0.1086 1.1616,0.2639 1.2505,0.3451 0.1317,0.1203 0.1558,0.4362 0.1299,1.6970996 -0.0369,1.795001 0.1288,2.928201 0.6422,4.393401 0.8004,2.284 2.1682,4.0952 4.347,5.756 0.4491,0.3424 0.8573,0.6937 0.907,0.7808 0.0606,0.1061 -0.0532,0.4003 -0.3448,0.891 -0.7624,1.2834 -0.94,1.9436 -0.9418,3.5016 -0.0012,1.0413 0.0453,1.4953 0.1978,1.9327 l 0.1993,0.5716 0.6717,-10e-5 c 0.3695,-1e-4 1.0848,0.0576 1.5896,0.1281 l 0.9178,0.1283 0.3888,-0.4394 c 0.2138,-0.2416 0.6821,-0.9941 1.0407,-1.6722 0.5498,-1.0397 0.8632,-1.4646 1.999,-2.7103 2.5718,-2.8209 4.3735,-5.1669 5.5071,-7.171 0.8742,-1.5455 1.2559,-2.5242 1.6299,-4.1789 0.0835,-0.369201 0.3839,-0.469401 2.0572,-0.685901 1.9316,-0.2499 4.4878,-0.3223 6.2293,-0.1765 5.2085,0.4361 8.5925,2.238801 10.1966,5.432001 0.6837,1.361 0.5736,1.5459 -0.9222,1.5478 -2.1369,0.0029 -3.575,0.8041 -4.374,2.4373 -0.2855,0.5836 -0.5945,1.8347 -0.5977,2.4206 -0.0025,0.4506 -0.1736,0.5721 -0.9911,0.7037 -1.8395,0.2963 -3.6915,1.2704 -5.0698,2.6665 -1.4863,1.5057 -2.5009,3.5118 -3.0718,6.0742 -0.1183,0.5311 -0.2673,1.0177 -0.331,1.0814 -0.082,0.082 -0.4434,0.0781 -1.2339,-0.0134 -2.2822,-0.264 -4.1228,-0.094 -5.7417,0.5303 -0.8375,0.323 -2.1202,1.139 -2.5813,1.6422 l -0.2367,0.2582 0.4152,0.871 c 0.8078,1.6949 1.1815,3.812 1.3068,7.404 0.0595,1.7042 0.1315,2.5233 0.2496,2.8387 0.5203,1.3899 1.254,2.3157 2.2213,2.803 1.825,0.9193 5.0587,0.5767 6.4997,-0.6885 0.3135,-0.2753 0.3836,-0.4242 0.4483,-0.9521 0.1047,-0.8553 0.4344,-1.7972 0.8642,-2.469 0.3191,-0.4988 2.5277,-2.6854 2.9526,-2.9232 0.2153,-0.1205 0.5712,-0.0029 0.6908,0.228 0.1748,0.3377 -0.0533,3.3867 -0.3105,4.1502 -0.5342,1.586 -1.7452,2.8241 -4.6354,4.7392 -1.5894,1.0531 -3.7781,1.4536 -6.7996,1.244 z m 4.4642,-1.3527 c 0.732,-0.2203 1.8813,-0.8169 2.3954,-1.2434 0.3624,-0.3007 0.3383,-0.2953 -0.49,0.1085 -1.4719,0.7176 -3.5183,0.9546 -5.1875,0.6008 -1.9191,-0.4067 -3.3942,-1.7791 -4.0489,-3.7668 -0.2328,-0.7071 -0.2829,-1.1448 -0.3858,-3.3748 -0.1922,-4.1616 -0.7207,-6.5415 -1.7152,-7.7234 l -0.2962,-0.3521 0.206,-0.3826 c 0.1133,-0.2104 0.5015,-0.6509 0.8627,-0.9789 1.1774,-1.069 2.6523,-1.8008 4.4056,-2.186 0.8596,-0.1888 3.8631,-0.2625 4.5377,-0.1113 l 0.3383,0.0759 0.2872,-1.0959 c 1.1619,-4.4335 4.1646,-7.6432 8.0462,-8.601 0.8964,-0.2212 0.9528,-0.2521 0.9528,-0.5212 0,-0.9719 0.7271,-2.6508 1.527,-3.5261 0.8749,-0.9573 2.5688,-1.6992 3.8898,-1.7038 0.2546,-8e-4 0.4628,-0.0429 0.4628,-0.0934 0,-0.0505 -0.2403,-0.434 -0.534,-0.8522 -1.9397,-2.762 -6.0349,-4.1246 -11.7697,-3.916 -1.6804,0.0611 -4.101,0.299 -4.1748,0.4103 -0.0146,0.022 -0.1366,0.4319 -0.2711,0.911 -0.7531,2.6821 -3.104,6.2318 -6.8382,10.3251 -1.3123,1.4384 -1.5949,1.8166 -2.1628,2.8949 -0.7099,1.3477 -1.3768,2.1856 -1.918,2.4098 -0.2774,0.1149 -0.5187,0.1177 -1.2334,0.0144 -1.1024,-0.1594 -3.0973,-0.1661 -4.0794,-0.0137 l -0.7397,0.1148 -0.9689,-0.4853 c -1.8413,-0.9222 -4.7555,-1.795 -6.3041,-1.888 l -0.871,-0.0524 -0.3811,0.7987 c -0.3991,0.8362 -0.6842004,1.0348 -1.0498004,0.7313 -0.2127,-0.1765 -0.151,-0.5992 0.2127,-1.4571 0.5798004,-1.3676 0.4797004,-1.5814 -0.3846,-0.8207 -0.5802,0.5107 -0.9305,1.2525 -1.0268,2.1745 -0.0795,0.76 -0.3085,1.0522 -0.7397,0.944 -0.3703,-0.0929 -0.4478,-0.4662 -0.2854,-1.3746 0.1612,-0.902 0.6256,-1.9027 1.0823,-2.3318 0.3114,-0.2927 0.3403,-0.3781 0.3403,-1.0071 0,-0.3781 -0.0385,-0.6874 -0.0856,-0.6874 -0.1619,0 -0.8012,0.9268 -1.1789,1.7091 -0.7232,1.4978 -1.1277,3.7778 -1.13,6.369 -5e-4,0.5803 0.0358,1.0763 0.0807,1.1021 0.0449,0.0259 0.3035,0.0791 0.5746,0.1184 l 0.4928,0.0713 0.3238,-0.5484 c 0.2264,-0.3836 0.4874,-0.6421 0.8681,-0.8597 0.5867,-0.3354 1.4699004,-1.1558 1.4699004,-1.3654 0,-0.084 -0.1385004,-0.1125 -0.3994004,-0.082 -0.2979,0.0348 -0.4364,-0.0037 -0.5445,-0.1515 -0.216,-0.2955 -0.176,-0.5667 0.1114,-0.7551 0.5866,-0.3843 3.3550004,-0.3873 4.9156004,-0.0054 1.6176,0.396 4.197,1.9487 4.3678,2.6294 0.0514,0.2047 0.0089,0.3425 -0.1569,0.5082 -0.2581,0.2582 -0.4481,0.2033 -1.0783,-0.3112 l -0.3516,-0.2871 0.162,0.5457 c 0.4349,1.4643 0.9766,2.5526 1.7024,3.4197 0.2353,0.2811 1.0129,0.9077 1.728,1.3924 l 1.3003,0.8813 1.1717,-0.2262 c 1.6196,-0.3127 1.9058,-0.2363 3.1275,0.8347 0.7401,0.6488 0.9296,0.8754 0.9296,1.1116 0,0.3485 -0.1773,0.558 -0.4722,0.558 -0.116,0 -0.5594,-0.3109 -0.9854,-0.6909 -1.1515,-1.0273 -1.0788,-1.0069 -2.5579,-0.7175 -1.1337,0.2218 -1.3037,0.2858 -1.6348,0.615 l -0.3696,0.3675 0.0714,0.9285 c 0.0393,0.5107 0.1427,1.0664 0.2298,1.2349 0.0874,0.1689 0.4282,0.4586 0.7595,0.6456 0.7374,0.4162 1.1616,1.0148 1.231,1.7374 0.0646,0.6719 -0.0982,0.8379 -0.921,0.9399 -0.7888,0.0978 -1.287,0.3003 -1.4394,0.5851 -0.1423,0.2659 -0.1571,1.3946 -0.0194,1.4797 0.0541,0.0335 0.1923,-0.1203 0.3071,-0.3416 0.1149,-0.2213 0.3935,-0.552 0.6193,-0.7348 0.3857,-0.3124 0.4753,-0.3347 1.4853,-0.3698 0.8869,-0.0307 1.084,-0.0688 1.1269,-0.2177 0.0286,-0.0993 0.1871,-1.0808 0.3521,-2.1812 0.1777,-1.1845 0.3613,-2.0617 0.4499,-2.1504 0.1969,-0.1969 0.6176,-0.1911 0.7852,0.0108 0.0962,0.1159 0.1083,0.3505 0.0437,0.8438 -0.1164,0.8896 -0.0971,1.0209 0.3465,2.3536 1.1208,3.3669 3.3123,6.1348 5.4086,6.8311 1.4994,0.498 3.8093,0.5911 5.0917,0.2051 z M 6.7801346,31.982472 c -0.2617,-0.2892 -0.2218,-0.6396 0.0965,-0.8482 0.3529,-0.2313 0.7741,-0.0678 0.8765,0.3403 0.1414,0.5636 -0.5812,0.9408 -0.973,0.5079 z m 29.4085004,0.0815 c -0.2151,-0.1252 -0.2442,-0.5142 -0.0809,-1.0808 0.7105,-2.466 0.7748,-5.4595 0.1586,-7.3887 -0.3273,-1.0247 -0.3338,-1.2784 -0.0367,-1.4374 0.3842,-0.2056 0.6987,0.0252 0.9502,0.6974 0.7774,2.0778 0.7839,5.2591 0.0167,8.2366 -0.2552,0.9906 -0.527,1.253 -1.0079,0.9729 z m -7.1965,-4.5457 c -0.0992,-0.1095 -0.1802,-0.285 -0.1802,-0.39 0,-0.1049 0.4366,-0.6645 0.9702,-1.2435 4.2167,-4.5751 6.6824,-8.4239 7.1346,-11.1366 0.081,-0.4859 0.3958,-0.7966 0.7069,-0.6979 0.4199,0.1333 0.4688,0.4193 0.2377,1.391 -0.5744,2.415 -2.2636,5.2889 -5.147,8.757 -1.489,1.7909 -3.1456,3.5224 -3.3684,3.5206 -0.0955,-8e-4 -0.2547,-0.091 -0.3538,-0.2006 z m 16.1883,-4.567 c -0.07,-0.0445 -0.2492,-0.405 -0.3983,-0.8011 -0.8831,-2.3462 -3.014,-4.1338 -5.572,-4.6744 -0.7996,-0.169 -0.9255,-0.2591 -0.9255,-0.6622 0,-0.5168 0.3431,-0.5945 1.4289,-0.3238 1.8477,0.4608 3.6094,1.5577 4.7451,2.9544 0.6313,0.7764 1.4224,2.2621 1.5179,2.8508 0.0896,0.5522 -0.3675,0.929 -0.7961,0.6563 z m -16.5476,28.4752 c -0.357,-0.3743 -0.8867,-1.0157 -1.1771,-1.4253 -0.5292,-0.7464 -1.6919,-2.9465 -1.6923,-3.2022 -10e-5,-0.0748 -0.0429,-0.1361 -0.095,-0.1361 -0.0521,0 -0.1195,0.2205 -0.1499,0.4899 -0.0626,0.5552 -0.2325,0.8167 -0.5309,0.8167 -0.2864,0 -0.2612,0.097 0.2154,0.827 0.5603,0.8581 1.1797,1.5408 1.9078,2.1025 0.5841,0.4506 1.8732,1.2006 2.0722,1.2056 0.0544,0.0012 -0.1932,-0.3038 -0.5502,-0.6781 z m 12.9949,-1.8607 c 1.0716,-1.0384 1.5566,-2.1942 1.5566,-3.7093 v -0.5488 l -0.7575,0.7517 c -1.0858,1.0775 -1.6379,2.2569 -1.6379,3.4989 0,0.3023 -0.1062,0.4959 -0.5172,0.9427 l -0.5172,0.5623 0.5988,-0.4214 c 0.3294,-0.2317 0.9029,-0.716 1.2744,-1.0761 z m -17.7628,-0.5518 c 0.0362,-0.1441 0.0086,-0.3688 -0.0612,-0.4993 -0.1566,-0.2926 -0.1707,-0.2764 -0.2588,0.2986 -0.0565,0.3695 -0.0381,0.4628 0.0917,0.4628 0.0894,0 0.1921,-0.1179 0.2283,-0.2621 z m -1.6949,-3.8121 c 0,-0.2174 -0.2275,-0.4463 -0.7734,-0.7779 -0.8858,-0.5381 -1.1652,-1.0406 -1.3216,-2.3766 -0.1372,-1.1727 -0.0423,-1.6898 0.4087,-2.2257 l 0.2677,-0.3182 -0.4216,-0.279 -0.4216,-0.279 -0.4649,1.3272 c -0.8109,2.3146 -0.7875,2.1767 -0.4511,2.666 0.6614,0.9615 0.8223,1.1047 1.3524,1.2038 0.6233,0.1164 1.025,0.3665 1.2642,0.787 0.0991,0.1741 0.2659,0.3169 0.3707,0.3173 0.1048,3e-4 0.1905,-0.0198 0.1905,-0.0449 z m -1.9295,-16.4999 c 0.0466,-0.0419 0.0106,-0.3908 -0.0801,-0.7753 -0.3689,-1.5652 -0.1344,-3.5278 0.6072,-5.0817 l 0.346,-0.725 -0.4789,-0.3788 c -0.9472,-0.749 -2.4565,-2.3716 -3.0841,-3.3156 -0.7655,-1.1514 -1.3802,-2.5351 -1.7641,-3.971 -0.2258,-0.8446 -0.2934,-1.3969 -0.3389,-2.767801 l -0.0568,-1.7125996 -0.394,-0.0679 c -0.9021,-0.1554 -2.5837,-0.6184 -3.3665,-0.9268 -3.0841004,-1.2151 -4.7204004,-3.3203 -4.5754004,-5.8867 0.0232,-0.4097 0.0272,-0.7449 0.0089,-0.7449 -0.0182,0 -0.345,0.1415 -0.7262,0.3143 -3.1819,1.4427 -4.7867,4.4006 -4.3517,8.0204996 0.0661,0.5495 0.0665,0.55 0.7885,0.9242 2.4029,1.245401 4.831,3.304101 6.8012,5.766801 1.9527004,2.4408 4.0115004,6.1914 4.9707004,9.0555 0.1969,0.588 0.2952,0.7392 0.5165,0.7947 0.1504,0.0378 0.2945,0.0475 0.3204,0.0216 0.0259,-0.0259 -0.2531,-0.8735 -0.62,-1.8835 -0.9912,-2.729 -0.9347,-2.508 -0.7059,-2.7609 0.2439,-0.2694 0.513,-0.2799 0.732,-0.0283 0.2071,0.2378 0.7234,1.57 1.4,3.6123 l 0.5204,1.5709 0.5253,0.1999 c 0.2889,0.11 0.8438,0.3616 1.2331,0.5593 0.5748,0.2918 0.7997,0.3502 1.1977,0.3111 0.2694,-0.0266 0.5281,-0.0825 0.5747,-0.1243 z m -6.9147,-16.506801 c -0.1634,-0.0887 -0.8219,-0.3368 -1.4634,-0.5515 -1.3924,-0.4659 -2.8473004,-0.5972 -4.0674004,-0.3669 -0.8873,0.1674 -1.1185,0.0651 -1.0645,-0.471 0.052,-0.5173 0.5826,-0.6616 2.4281,-0.6604 1.2185004,8e-4 1.6921004,0.0475 2.3601004,0.2328 1.0039,0.2783 2.4319,0.8603 2.6526,1.081 0.2076,0.2077 0.2026,0.5203 -0.0119,0.7348 -0.2108,0.2108 -0.4467,0.2111 -0.8336,0.0012 z m -9.0972004,-1.2184 c -0.1375,-0.3073 -0.1832,-0.7312 -0.185,-1.7147996 -0.0022,-1.2036 0.0214,-1.3575 0.3,-1.9523 0.6375,-1.3614 1.3612,-1.9141 1.7602,-1.3444 0.2242,0.3201 0.227,0.3085 -0.2119,0.8587 -0.7575,0.9497 -1.0095,2.2924 -0.6899,3.6766996 0.1504,0.6516 0.0261,0.8845 -0.472,0.8845 -0.2634,0 -0.3506,-0.071 -0.5014,-0.4084 z M 40.919535,37.495072 c -0.193,-0.193 -0.1643,-0.475 0.1917,-1.8846 0.361,-1.4293 0.5467,-1.7956 0.9105,-1.7956 0.5232,0 0.6432,0.4643 0.3411,1.3201 -0.0925,0.262 -0.242,0.8194 -0.3322,1.2386 -0.2398,1.1135 -0.3143,1.2521 -0.6732,1.2521 -0.169,0 -0.366,-0.0588 -0.4379,-0.1306 z m 2.1183,-5.5126 c -0.2519,-0.2784 -0.2261,-0.4937 0.1193,-0.9936 0.3259,-0.4719 0.5616,-0.6018 0.898,-0.495 0.3701,0.1175 0.39,0.5505 0.048,1.0441 -0.4549,0.6564 -0.7588,0.7832 -1.0653,0.4445 z m 1.851,-2.1776 c -0.2624,-0.29 -0.2238,-0.4794 0.1737,-0.8526 1.2207,-1.146 3.9361,-2.3237 5.3581,-2.3237 0.5035,0 0.7121,0.146 0.7121,0.4985 0,0.3436 -0.2184,0.4761 -0.9892,0.6003 -1.3888,0.2236 -2.9542,0.9125 -4.1061,1.807 -0.6665,0.5176 -0.8795,0.5677 -1.1486,0.2705 z m -20.7594,-9.0112 c -1.4424,-1.0755 -3.0482,-2.7994 -3.0482,-3.2722 0,-0.5618 0.6244,-0.634 1.0608,-0.1227 0.8368,0.9805 1.8038,1.9146 2.5868,2.4986 1.0315,0.7695 1.111,0.8817 0.8772,1.2386 -0.2631,0.4015 -0.5768,0.3287 -1.4766,-0.3423 z m -4.3676,-5.3527 c -0.3527,-0.8188 -0.7493,-2.0968 -0.7493,-2.4147 0,-0.1601 0.0588,-0.3498 0.1306,-0.4217 0.1926,-0.192501 0.6125,-0.158801 0.7459,0.0599 0.1441,0.2362 0.8556,2.2594 0.9386,2.6686 0.0782,0.386 -0.1229,0.6251 -0.5258,0.6251 -0.2745,0 -0.3471,-0.0695 -0.54,-0.5172 z m -0.8657,-5.336301 c -0.2193,-0.1536996 -0.2342,-0.2320996 -0.1792,-0.9406996 0.0331,-0.4252 0.0931,-0.857 0.1334,-0.9595 0.1095,-0.2781 0.4629,-0.3456 0.7668,-0.1464 0.2554,0.1673 0.2643,0.2104 0.1976,0.9617 -0.0384,0.4326 -0.1106,0.8662 -0.1604,0.9635 -0.1319,0.2576996 -0.4832,0.3139996 -0.7582,0.1213996 z"
     fill="#ffffff"
     id="path1620" />
</svg>
