<?xml version="1.0" encoding="UTF-8" standalone="no"?>
<svg
   width="450"
   height="425"
   viewBox="0 0 450 425"
   fill="none"
   version="1.1"
   id="svg302"
   sodipodi:docname="logo-bw.svg"
   inkscape:version="1.1.2 (b8e25be833, 2022-02-05)"
   xmlns:inkscape="http://www.inkscape.org/namespaces/inkscape"
   xmlns:sodipodi="http://sodipodi.sourceforge.net/DTD/sodipodi-0.dtd"
   xmlns="http://www.w3.org/2000/svg"
   xmlns:svg="http://www.w3.org/2000/svg">
  <sodipodi:namedview
     id="namedview304"
     pagecolor="#ffffff"
     bordercolor="#666666"
     borderopacity="1.0"
     inkscape:pageshadow="2"
     inkscape:pageopacity="0.0"
     inkscape:pagecheckerboard="0"
     showgrid="false"
     inkscape:zoom="1.668"
     inkscape:cx="190.04796"
     inkscape:cy="184.05276"
     inkscape:window-width="1920"
     inkscape:window-height="1017"
     inkscape:window-x="-8"
     inkscape:window-y="-8"
     inkscape:window-maximized="1"
     inkscape:current-layer="svg302" />
  <path
     d="m 225.0005,423.412 c 121.741,0 220.431,-94.429 220.431,-210.912 0,-116.484 -98.69,-210.912 -220.431,-210.912 -121.741,0 -220.432,94.428 -220.432,210.912 0,116.483 98.691,210.912 220.432,210.912 z"
     fill="#333333"
     id="path2" />
  <path
     d="m 223.8895,43.876 -146.214,84.553 -0.005,169.122 146.21,84.57 146.216,-84.558 0.004,-169.123 -146.212,-84.564"
     fill="#ffffff"
     id="path4" />
  <path
     d="m 203.4655,84.062 c 6.037,0 12.074,0 18.111,0 0,-10.469 0,-20.939 0,-31.409 -6.037,10.47 -12.074,20.94 -18.111,31.409 z"
     fill="url(#paint0_radial_62_2108)"
     id="path6"
     style="fill:url(#paint0_radial_62_2108)" />
  <path
     d="m 161.3265,84.103 c 12.355,0 24.711,0 37.067,0 6.188,-10.723 12.377,-21.447 18.566,-32.17 -18.545,10.723 -37.089,21.447 -55.633,32.17 z"
     fill="url(#paint1_radial_62_2108)"
     id="path8"
     style="fill:url(#paint1_radial_62_2108)" />
  <path
     d="m 90.0695,125.286 c 28.242,0 56.484,0 84.726,0 7.019,-12.178 14.038,-24.356 21.057,-36.534 -14.179,-0.017 -28.358,-0.029 -42.537,-0.045 -21.082,12.193 -42.164,24.386 -63.246,36.579 z"
     fill="url(#paint2_radial_62_2108)"
     id="path10"
     style="fill:url(#paint2_radial_62_2108)" />
  <path
     d="m 180.1725,124.997 c 13.743,-0.017 27.486,-0.033 41.229,-0.053 0,-12.099 0,-24.199 0,-36.298 -6.759,0 -13.518,0 -20.277,0 -6.984,12.117 -13.968,24.234 -20.952,36.351 z"
     fill="url(#paint3_radial_62_2108)"
     id="path12"
     style="fill:url(#paint3_radial_62_2108)" />
  <path
     d="m 86.8385,130.883 c 21.159,12.234 42.319,24.467 63.478,36.701 7.053,-12.235 14.106,-24.47 21.159,-36.705 -28.212,0.001 -56.425,0.002 -84.637,0.004 z"
     fill="url(#paint4_radial_62_2108)"
     id="path14"
     style="fill:url(#paint4_radial_62_2108)" />
  <path
     d="m 154.1975,169.725 c 10.826,6.351 21.652,12.701 32.478,19.051 10.967,-19.3 21.934,-38.601 32.901,-57.901 -14.434,-0.002 -28.868,-0.004 -43.302,-0.008 -7.359,12.953 -14.718,25.905 -22.077,38.858 z"
     fill="url(#paint5_radial_62_2108)"
     id="path16"
     style="fill:url(#paint5_radial_62_2108)" />
  <path
     d="m 190.5415,191.064 c 10.28,5.939 20.56,11.878 30.84,17.817 0.001,-23.774 0.002,-47.548 0.004,-71.322 -10.281,17.835 -20.563,35.67 -30.844,53.505 z"
     fill="url(#paint6_radial_62_2108)"
     id="path18"
     style="fill:url(#paint6_radial_62_2108)" />
  <path
     d="m 244.3125,84.062 c -6.037,0 -12.074,0 -18.111,0 0,-10.469 0,-20.939 0,-31.409 6.037,10.47 12.074,20.94 18.111,31.409 z"
     fill="url(#paint7_radial_62_2108)"
     id="path20"
     style="fill:url(#paint7_radial_62_2108)" />
  <path
     d="m 286.4515,84.103 c -12.355,0 -24.711,0 -37.067,0 -6.188,-10.723 -12.377,-21.447 -18.566,-32.17 18.545,10.723 37.089,21.447 55.633,32.17 z"
     fill="url(#paint8_radial_62_2108)"
     id="path22"
     style="fill:url(#paint8_radial_62_2108)" />
  <path
     d="m 357.7075,125.286 c -28.241,0 -56.483,0 -84.725,0 -7.019,-12.178 -14.039,-24.356 -21.058,-36.534 14.18,-0.017 28.359,-0.029 42.538,-0.045 21.082,12.193 42.164,24.386 63.245,36.579 z"
     fill="url(#paint9_radial_62_2108)"
     id="path24"
     style="fill:url(#paint9_radial_62_2108)" />
  <path
     d="m 267.6055,124.997 c -13.743,-0.017 -27.486,-0.033 -41.229,-0.053 0,-12.099 0,-24.199 0,-36.298 6.759,0 13.518,0 20.277,0 6.984,12.117 13.968,24.234 20.952,36.351 z"
     fill="url(#paint10_radial_62_2108)"
     id="path26"
     style="fill:url(#paint10_radial_62_2108)" />
  <path
     d="m 360.9385,130.883 c -21.159,12.234 -42.318,24.467 -63.477,36.701 -7.053,-12.235 -14.106,-24.47 -21.159,-36.705 28.212,0.001 56.424,0.002 84.636,0.004 z"
     fill="url(#paint11_radial_62_2108)"
     id="path28"
     style="fill:url(#paint11_radial_62_2108)" />
  <path
     d="m 293.5805,169.725 c -10.826,6.351 -21.652,12.701 -32.478,19.051 -10.967,-19.3 -21.934,-38.601 -32.901,-57.901 14.434,-0.002 28.867,-0.004 43.301,-0.008 7.36,12.953 14.719,25.905 22.078,38.858 z"
     fill="url(#paint12_radial_62_2108)"
     id="path30"
     style="fill:url(#paint12_radial_62_2108)" />
  <path
     d="m 257.2375,191.064 c -10.28,5.939 -20.561,11.878 -30.841,17.817 -0.001,-23.774 -0.002,-47.548 -0.004,-71.322 10.282,17.835 20.563,35.67 30.845,53.505 z"
     fill="url(#paint13_radial_62_2108)"
     id="path32"
     style="fill:url(#paint13_radial_62_2108)" />
  <path
     d="m 345.5655,259.725 c -3.018,5.237 -6.037,10.473 -9.055,15.709 9.053,5.235 18.106,10.47 27.159,15.705 -6.035,-10.472 -12.069,-20.943 -18.104,-31.414 z"
     fill="url(#paint14_radial_62_2108)"
     id="path34"
     style="fill:url(#paint14_radial_62_2108)" />
  <path
     d="m 366.6005,223.155 c -6.178,10.717 -12.356,21.433 -18.534,32.15 6.179,10.73 12.357,21.459 18.535,32.189 -10e-4,-21.446 -10e-4,-42.893 -10e-4,-64.339 z"
     fill="url(#paint15_radial_62_2108)"
     id="path36"
     style="fill:url(#paint15_radial_62_2108)" />
  <path
     d="m 366.6185,140.758 c -14.121,24.496 -28.242,48.992 -42.363,73.488 7.02,12.177 14.041,24.354 21.062,36.532 7.102,-12.292 14.205,-24.583 21.307,-36.874 -0.002,-24.382 -0.004,-48.764 -0.008,-73.146 z"
     fill="url(#paint16_radial_62_2108)"
     id="path38"
     style="fill:url(#paint16_radial_62_2108)" />
  <path
     d="m 321.8165,219.054 c -6.857,11.929 -13.712,23.858 -20.568,35.787 10.462,6.05 20.924,12.1 31.386,18.149 3.379,-5.862 6.759,-11.725 10.138,-17.587 -6.985,-12.116 -13.97,-24.232 -20.956,-36.349 z"
     fill="url(#paint17_radial_62_2108)"
     id="path40"
     style="fill:url(#paint17_radial_62_2108)" />
  <path
     d="m 363.3935,135.157 c -21.157,12.236 -42.315,24.471 -63.473,36.707 7.053,12.235 14.106,24.47 21.159,36.705 14.105,-24.47 28.21,-48.941 42.314,-73.412 z"
     fill="url(#paint18_radial_62_2108)"
     id="path42"
     style="fill:url(#paint18_radial_62_2108)" />
  <path
     d="m 296.1285,174.16 c -10.904,6.215 -21.808,12.43 -32.712,18.645 11.205,19.163 22.41,38.326 33.616,57.488 7.218,-12.518 14.439,-25.036 21.658,-37.554 -7.521,-12.86 -15.041,-25.719 -22.562,-38.579 z"
     fill="url(#paint19_radial_62_2108)"
     id="path44"
     style="fill:url(#paint19_radial_62_2108)" />
  <path
     d="m 259.5055,195.014 c -10.275,5.947 -20.551,11.894 -30.826,17.841 20.556,11.889 41.113,23.776 61.669,35.665 -10.281,-17.835 -20.562,-35.671 -30.843,-53.506 z"
     fill="url(#paint20_radial_62_2108)"
     id="path46"
     style="fill:url(#paint20_radial_62_2108)" />
  <path
     d="m 325.1425,295.154 c 3.018,-5.236 6.037,-10.472 9.055,-15.708 9.053,5.235 18.106,10.469 27.159,15.704 -12.071,0.002 -24.143,0.002 -36.214,0.004 z"
     fill="url(#paint21_radial_62_2108)"
     id="path48"
     style="fill:url(#paint21_radial_62_2108)" />
  <path
     d="m 304.0375,331.684 c 6.178,-10.717 12.356,-21.434 18.534,-32.15 12.366,-0.005 24.733,-0.013 37.1,-0.021 -18.545,10.723 -37.089,21.446 -55.634,32.169 z"
     fill="url(#paint22_radial_62_2108)"
     id="path50"
     style="fill:url(#paint22_radial_62_2108)" />
  <path
     d="m 232.7995,372.898 c 14.121,-24.496 28.242,-48.992 42.363,-73.488 14.039,10e-4 28.079,0.002 42.119,0.002 -7.077,12.306 -14.153,24.612 -21.23,36.918 -21.084,12.189 -42.168,24.379 -63.252,36.568 z"
     fill="url(#paint23_radial_62_2108)"
     id="path52"
     style="fill:url(#paint23_radial_62_2108)" />
  <path
     d="m 278.1005,294.891 c 6.886,-11.912 13.774,-23.823 20.66,-35.735 10.462,6.05 20.925,12.1 31.387,18.149 -3.38,5.863 -6.759,11.725 -10.139,17.588 -13.969,-10e-4 -27.938,-0.002 -41.908,-0.002 z"
     fill="url(#paint24_radial_62_2108)"
     id="path54"
     style="fill:url(#paint24_radial_62_2108)" />
  <path
     d="m 226.3435,372.902 c 0.002,-24.469 0.002,-48.939 0.004,-73.408 14.106,0 28.212,0 42.318,0 -14.107,24.469 -28.214,48.939 -42.321,73.408 z"
     fill="url(#paint25_radial_62_2108)"
     id="path56"
     style="fill:url(#paint25_radial_62_2108)" />
  <path
     d="m 226.4365,295.056 c -0.078,-12.565 -0.156,-25.13 -0.234,-37.695 22.172,0.138 44.345,0.275 66.517,0.413 -7.215,12.52 -14.429,25.042 -21.644,37.562 -14.88,-0.093 -29.759,-0.186 -44.639,-0.279 z"
     fill="url(#paint26_radial_62_2108)"
     id="path58"
     style="fill:url(#paint26_radial_62_2108)" />
  <path
     d="m 226.1575,252.864 c 0.004,-11.886 0.009,-23.772 0.017,-35.658 20.558,11.885 41.115,23.772 61.673,35.657 -20.562,0 -41.125,0.001 -61.687,0.001 z"
     fill="url(#paint27_radial_62_2108)"
     id="path60"
     style="fill:url(#paint27_radial_62_2108)" />
  <path
     d="m 122.6305,295.138 c -3.018,-5.236 -6.036,-10.473 -9.055,-15.709 -9.053,5.235 -18.106,10.47 -27.159,15.705 12.072,10e-4 24.143,0.002 36.214,0.004 z"
     fill="url(#paint28_radial_62_2108)"
     id="path62"
     style="fill:url(#paint28_radial_62_2108)" />
  <path
     d="m 143.7355,331.668 c -6.177,-10.717 -12.355,-21.434 -18.533,-32.151 -12.367,-0.004 -24.734,-0.012 -37.1,-0.021 18.544,10.723 37.089,21.446 55.633,32.169 z"
     fill="url(#paint29_radial_62_2108)"
     id="path64"
     style="fill:url(#paint29_radial_62_2108)" />
  <path
     d="m 214.9745,372.882 c -14.121,-24.496 -28.242,-48.992 -42.363,-73.488 -14.04,0 -28.08,10e-4 -42.119,0.002 7.077,12.305 14.153,24.612 21.23,36.918 21.084,12.189 42.168,24.378 63.252,36.567 z"
     fill="url(#paint30_radial_62_2108)"
     id="path66"
     style="fill:url(#paint30_radial_62_2108)" />
  <path
     d="m 169.6735,294.874 c -6.886,-11.912 -13.774,-23.823 -20.661,-35.734 -10.462,6.05 -20.924,12.099 -31.386,18.149 3.379,5.863 6.759,11.725 10.139,17.588 13.969,-0.001 27.938,-0.002 41.908,-0.002 z"
     fill="url(#paint31_radial_62_2108)"
     id="path68"
     style="fill:url(#paint31_radial_62_2108)" />
  <path
     d="m 221.4295,372.886 c -10e-4,-24.47 -0.002,-48.939 -0.004,-73.409 -14.106,0 -28.212,0 -42.318,0 14.107,24.47 28.214,48.94 42.322,73.409 z"
     fill="url(#paint32_radial_62_2108)"
     id="path70"
     style="fill:url(#paint32_radial_62_2108)" />
  <path
     d="m 221.3365,295.04 c 0.078,-12.565 0.156,-25.131 0.234,-37.696 -22.172,0.138 -44.345,0.276 -66.517,0.413 7.215,12.521 14.429,25.042 21.644,37.563 14.88,-0.093 29.759,-0.186 44.639,-0.28 z"
     fill="url(#paint33_radial_62_2108)"
     id="path72"
     style="fill:url(#paint33_radial_62_2108)" />
  <path
     d="m 221.6165,252.848 c -0.005,-11.886 -0.009,-23.773 -0.017,-35.659 -20.558,11.886 -41.115,23.772 -61.673,35.658 20.562,0 41.124,0 61.687,0.001 z"
     fill="url(#paint34_radial_62_2108)"
     id="path74"
     style="fill:url(#paint34_radial_62_2108)" />
  <path
     d="m 102.2075,259.709 c 3.019,5.236 6.037,10.472 9.056,15.708 -9.053,5.235 -18.106,10.47 -27.159,15.705 6.034,-10.471 12.069,-20.942 18.103,-31.413 z"
     fill="url(#paint35_radial_62_2108)"
     id="path76"
     style="fill:url(#paint35_radial_62_2108)" />
  <path
     d="m 81.1735,223.138 c 6.177,10.717 12.355,21.434 18.533,32.151 -6.178,10.729 -12.356,21.459 -18.534,32.189 0,-21.447 0,-42.893 0.001,-64.34 z"
     fill="url(#paint36_radial_62_2108)"
     id="path78"
     style="fill:url(#paint36_radial_62_2108)" />
  <path
     d="m 81.1555,140.741 c 14.12,24.496 28.241,48.992 42.362,73.489 -7.02,12.177 -14.041,24.354 -21.062,36.531 -7.102,-12.291 -14.204,-24.582 -21.307,-36.873 0.002,-24.382 0.005,-48.764 0.007,-73.147 z"
     fill="url(#paint37_radial_62_2108)"
     id="path80"
     style="fill:url(#paint37_radial_62_2108)" />
  <path
     d="m 125.9565,219.038 c 6.857,11.929 13.713,23.858 20.569,35.787 -10.462,6.05 -20.924,12.099 -31.386,18.149 -3.38,-5.862 -6.759,-11.725 -10.139,-17.588 6.985,-12.116 13.971,-24.232 20.956,-36.348 z"
     fill="url(#paint38_radial_62_2108)"
     id="path82"
     style="fill:url(#paint38_radial_62_2108)" />
  <path
     d="m 84.3795,135.14 c 21.158,12.236 42.316,24.472 63.473,36.708 -7.053,12.235 -14.106,24.47 -21.158,36.705 -14.105,-24.471 -28.211,-48.942 -42.315,-73.413 z"
     fill="url(#paint39_radial_62_2108)"
     id="path84"
     style="fill:url(#paint39_radial_62_2108)" />
  <path
     d="m 151.6455,174.144 c 10.904,6.215 21.808,12.43 32.712,18.645 -11.206,19.163 -22.411,38.325 -33.616,57.488 -7.219,-12.519 -14.439,-25.036 -21.658,-37.555 7.521,-12.859 15.041,-25.719 22.562,-38.578 z"
     fill="url(#paint40_radial_62_2108)"
     id="path86"
     style="fill:url(#paint40_radial_62_2108)" />
  <path
     d="m 188.2675,194.998 c 10.276,5.947 20.551,11.894 30.827,17.841 -20.557,11.888 -41.113,23.776 -61.669,35.665 10.281,-17.836 20.561,-35.671 30.842,-53.506 z"
     fill="url(#paint41_radial_62_2108)"
     id="path88"
     style="fill:url(#paint41_radial_62_2108)" />
  <defs
     id="defs300">
    <radialGradient
       id="paint0_radial_62_2108"
       cx="0"
       cy="0"
       r="1"
       gradientUnits="userSpaceOnUse"
       gradientTransform="matrix(-194.948,-0.00340248,0.00368961,-211.399,223.8845,212.998)">
      <stop
         stop-color="white"
         id="stop90" />
      <stop
         offset="1"
         id="stop92" />
    </radialGradient>
    <radialGradient
       id="paint1_radial_62_2108"
       cx="0"
       cy="0"
       r="1"
       gradientUnits="userSpaceOnUse"
       gradientTransform="matrix(-194.948,0.01020745,-0.01106883,-211.399,223.8845,212.998)">
      <stop
         stop-color="white"
         id="stop95" />
      <stop
         offset="1"
         id="stop97" />
    </radialGradient>
    <radialGradient
       id="paint2_radial_62_2108"
       cx="0"
       cy="0"
       r="1"
       gradientUnits="userSpaceOnUse"
       gradientTransform="matrix(-194.948,-0.00340248,0.00368961,-211.399,223.8845,212.998)">
      <stop
         stop-color="white"
         id="stop100" />
      <stop
         offset="1"
         id="stop102" />
    </radialGradient>
    <radialGradient
       id="paint3_radial_62_2108"
       cx="0"
       cy="0"
       r="1"
       gradientUnits="userSpaceOnUse"
       gradientTransform="matrix(-194.948,-0.00340248,0.00368961,-211.399,223.8845,212.998)">
      <stop
         stop-color="white"
         id="stop105" />
      <stop
         offset="1"
         id="stop107" />
    </radialGradient>
    <radialGradient
       id="paint4_radial_62_2108"
       cx="0"
       cy="0"
       r="1"
       gradientUnits="userSpaceOnUse"
       gradientTransform="matrix(-194.9479,0.19734407,-0.21399625,-211.39789,223.8845,212.998)">
      <stop
         stop-color="white"
         id="stop110" />
      <stop
         offset="1"
         id="stop112" />
    </radialGradient>
    <radialGradient
       id="paint5_radial_62_2108"
       cx="0"
       cy="0"
       r="1"
       gradientUnits="userSpaceOnUse"
       gradientTransform="matrix(-194.948,-0.00340248,0.00368961,-211.399,223.8845,212.998)">
      <stop
         stop-color="white"
         id="stop115" />
      <stop
         offset="1"
         id="stop117" />
    </radialGradient>
    <radialGradient
       id="paint6_radial_62_2108"
       cx="0"
       cy="0"
       r="1"
       gradientUnits="userSpaceOnUse"
       gradientTransform="matrix(-194.948,-0.01020745,0.01106883,-211.399,223.8845,212.998)">
      <stop
         stop-color="white"
         id="stop120" />
      <stop
         offset="1"
         id="stop122" />
    </radialGradient>
    <radialGradient
       id="paint7_radial_62_2108"
       cx="0"
       cy="0"
       r="1"
       gradientUnits="userSpaceOnUse"
       gradientTransform="matrix(194.948,0,0,211.399,223.8945,212.998)">
      <stop
         stop-color="white"
         id="stop125" />
      <stop
         offset="1"
         id="stop127" />
    </radialGradient>
    <radialGradient
       id="paint8_radial_62_2108"
       cx="0"
       cy="0"
       r="1"
       gradientUnits="userSpaceOnUse"
       gradientTransform="matrix(194.948,0,0,211.399,223.8935,212.998)">
      <stop
         stop-color="white"
         id="stop130" />
      <stop
         offset="1"
         id="stop132" />
    </radialGradient>
    <radialGradient
       id="paint9_radial_62_2108"
       cx="0"
       cy="0"
       r="1"
       gradientUnits="userSpaceOnUse"
       gradientTransform="matrix(194.948,0,0,211.399,223.8935,212.998)">
      <stop
         stop-color="white"
         id="stop135" />
      <stop
         offset="1"
         id="stop137" />
    </radialGradient>
    <radialGradient
       id="paint10_radial_62_2108"
       cx="0"
       cy="0"
       r="1"
       gradientUnits="userSpaceOnUse"
       gradientTransform="matrix(194.948,0,0,211.399,223.8935,212.998)">
      <stop
         stop-color="white"
         id="stop140" />
      <stop
         offset="1"
         id="stop142" />
    </radialGradient>
    <radialGradient
       id="paint11_radial_62_2108"
       cx="0"
       cy="0"
       r="1"
       gradientUnits="userSpaceOnUse"
       gradientTransform="matrix(194.9479,0.19592795,-0.21246064,211.39789,223.8935,212.998)">
      <stop
         stop-color="white"
         id="stop145" />
      <stop
         offset="1"
         id="stop147" />
    </radialGradient>
    <radialGradient
       id="paint12_radial_62_2108"
       cx="0"
       cy="0"
       r="1"
       gradientUnits="userSpaceOnUse"
       gradientTransform="matrix(194.948,0,0,211.399,223.8935,212.998)">
      <stop
         stop-color="white"
         id="stop150" />
      <stop
         offset="1"
         id="stop152" />
    </radialGradient>
    <radialGradient
       id="paint13_radial_62_2108"
       cx="0"
       cy="0"
       r="1"
       gradientUnits="userSpaceOnUse"
       gradientTransform="matrix(194.948,0,0,211.399,223.8935,212.998)">
      <stop
         stop-color="white"
         id="stop155" />
      <stop
         offset="1"
         id="stop157" />
    </radialGradient>
    <radialGradient
       id="paint14_radial_62_2108"
       cx="0"
       cy="0"
       r="1"
       gradientUnits="userSpaceOnUse"
       gradientTransform="matrix(97.476057,-169.08965,182.93311,105.45647,223.8675,212.968)">
      <stop
         stop-color="white"
         id="stop160" />
      <stop
         offset="1"
         id="stop162" />
    </radialGradient>
    <radialGradient
       id="paint15_radial_62_2108"
       cx="0"
       cy="0"
       r="1"
       gradientUnits="userSpaceOnUse"
       gradientTransform="matrix(97.463662,-169.09679,182.9417,105.44356,223.8675,212.968)">
      <stop
         stop-color="white"
         id="stop165" />
      <stop
         offset="1"
         id="stop167" />
    </radialGradient>
    <radialGradient
       id="paint16_radial_62_2108"
       cx="0"
       cy="0"
       r="1"
       gradientUnits="userSpaceOnUse"
       gradientTransform="matrix(97.476647,-169.08931,182.9336,105.45761,223.8675,212.968)">
      <stop
         stop-color="white"
         id="stop170" />
      <stop
         offset="1"
         id="stop172" />
    </radialGradient>
    <radialGradient
       id="paint17_radial_62_2108"
       cx="0"
       cy="0"
       r="1"
       gradientUnits="userSpaceOnUse"
       gradientTransform="matrix(97.476261,-169.09068,182.93329,105.45615,223.8675,212.968)">
      <stop
         stop-color="white"
         id="stop175" />
      <stop
         offset="1"
         id="stop177" />
    </radialGradient>
    <radialGradient
       id="paint18_radial_62_2108"
       cx="0"
       cy="0"
       r="1"
       gradientUnits="userSpaceOnUse"
       gradientTransform="matrix(97.304747,-169.18944,183.04013,105.2706,223.8675,212.968)">
      <stop
         stop-color="white"
         id="stop180" />
      <stop
         offset="1"
         id="stop182" />
    </radialGradient>
    <radialGradient
       id="paint19_radial_62_2108"
       cx="0"
       cy="0"
       r="1"
       gradientUnits="userSpaceOnUse"
       gradientTransform="matrix(97.477828,-169.08863,182.932,105.45839,223.8675,212.968)">
      <stop
         stop-color="white"
         id="stop185" />
      <stop
         offset="1"
         id="stop187" />
    </radialGradient>
    <radialGradient
       id="paint20_radial_62_2108"
       cx="0"
       cy="0"
       r="1"
       gradientUnits="userSpaceOnUse"
       gradientTransform="matrix(97.481868,-169.08745,182.92979,105.46222,223.8675,212.968)">
      <stop
         stop-color="white"
         id="stop190" />
      <stop
         offset="1"
         id="stop192" />
    </radialGradient>
    <radialGradient
       id="paint21_radial_62_2108"
       cx="0"
       cy="0"
       r="1"
       gradientUnits="userSpaceOnUse"
       gradientTransform="matrix(-97.471925,169.09203,-182.93655,-105.4525,223.8625,212.975)">
      <stop
         stop-color="white"
         id="stop195" />
      <stop
         offset="1"
         id="stop197" />
    </radialGradient>
    <radialGradient
       id="paint22_radial_62_2108"
       cx="0"
       cy="0"
       r="1"
       gradientUnits="userSpaceOnUse"
       gradientTransform="matrix(-97.484229,169.08609,-182.92919,-105.46527,223.8635,212.975)">
      <stop
         stop-color="white"
         id="stop200" />
      <stop
         offset="1"
         id="stop202" />
    </radialGradient>
    <radialGradient
       id="paint23_radial_62_2108"
       cx="0"
       cy="0"
       r="1"
       gradientUnits="userSpaceOnUse"
       gradientTransform="matrix(-97.471925,169.09203,-182.93568,-105.452,223.8635,212.976)">
      <stop
         stop-color="white"
         id="stop205" />
      <stop
         offset="1"
         id="stop207" />
    </radialGradient>
    <radialGradient
       id="paint24_radial_62_2108"
       cx="0"
       cy="0"
       r="1"
       gradientUnits="userSpaceOnUse"
       gradientTransform="matrix(-97.471925,169.09203,-182.93568,-105.452,223.8635,212.976)">
      <stop
         stop-color="white"
         id="stop210" />
      <stop
         offset="1"
         id="stop212" />
    </radialGradient>
    <radialGradient
       id="paint25_radial_62_2108"
       cx="0"
       cy="0"
       r="1"
       gradientUnits="userSpaceOnUse"
       gradientTransform="matrix(-97.643046,168.99327,-182.82971,-105.63763,223.8625,212.976)">
      <stop
         stop-color="white"
         id="stop215" />
      <stop
         offset="1"
         id="stop217" />
    </radialGradient>
    <radialGradient
       id="paint26_radial_62_2108"
       cx="0"
       cy="0"
       r="1"
       gradientUnits="userSpaceOnUse"
       gradientTransform="matrix(-97.468974,169.09373,-182.93752,-105.44881,223.8625,212.976)">
      <stop
         stop-color="white"
         id="stop220" />
      <stop
         offset="1"
         id="stop222" />
    </radialGradient>
    <radialGradient
       id="paint27_radial_62_2108"
       cx="0"
       cy="0"
       r="1"
       gradientUnits="userSpaceOnUse"
       gradientTransform="matrix(-97.466023,169.09543,-182.93936,-105.44562,223.8635,212.976)">
      <stop
         stop-color="white"
         id="stop225" />
      <stop
         offset="1"
         id="stop227" />
    </radialGradient>
    <radialGradient
       id="paint28_radial_62_2108"
       cx="0"
       cy="0"
       r="1"
       gradientUnits="userSpaceOnUse"
       gradientTransform="matrix(97.47163,169.0922,-182.93587,105.45168,223.9105,212.959)">
      <stop
         stop-color="white"
         id="stop230" />
      <stop
         offset="1"
         id="stop232" />
    </radialGradient>
    <radialGradient
       id="paint29_radial_62_2108"
       cx="0"
       cy="0"
       r="1"
       gradientUnits="userSpaceOnUse"
       gradientTransform="matrix(97.484025,169.08505,-182.92814,105.46509,223.9105,212.959)">
      <stop
         stop-color="white"
         id="stop235" />
      <stop
         offset="1"
         id="stop237" />
    </radialGradient>
    <radialGradient
       id="paint30_radial_62_2108"
       cx="0"
       cy="0"
       r="1"
       gradientUnits="userSpaceOnUse"
       gradientTransform="matrix(97.47104,169.09254,-182.93624,105.45105,223.9105,212.959)">
      <stop
         stop-color="white"
         id="stop240" />
      <stop
         offset="1"
         id="stop242" />
    </radialGradient>
    <radialGradient
       id="paint31_radial_62_2108"
       cx="0"
       cy="0"
       r="1"
       gradientUnits="userSpaceOnUse"
       gradientTransform="matrix(97.47213,169.09306,-182.93673,105.45218,223.9105,212.959)">
      <stop
         stop-color="white"
         id="stop245" />
      <stop
         offset="1"
         id="stop247" />
    </radialGradient>
    <radialGradient
       id="paint32_radial_62_2108"
       cx="0"
       cy="0"
       r="1"
       gradientUnits="userSpaceOnUse"
       gradientTransform="matrix(97.643341,168.9931,-182.82952,105.63795,223.9105,212.959)">
      <stop
         stop-color="white"
         id="stop250" />
      <stop
         offset="1"
         id="stop252" />
    </radialGradient>
    <radialGradient
       id="paint33_radial_62_2108"
       cx="0"
       cy="0"
       r="1"
       gradientUnits="userSpaceOnUse"
       gradientTransform="matrix(97.469859,169.09322,-182.93784,105.45027,223.9105,212.959)">
      <stop
         stop-color="white"
         id="stop255" />
      <stop
         offset="1"
         id="stop257" />
    </radialGradient>
    <radialGradient
       id="paint34_radial_62_2108"
       cx="0"
       cy="0"
       r="1"
       gradientUnits="userSpaceOnUse"
       gradientTransform="matrix(97.466318,169.09526,-182.93918,105.44594,223.9105,212.959)">
      <stop
         stop-color="white"
         id="stop260" />
      <stop
         offset="1"
         id="stop262" />
    </radialGradient>
    <radialGradient
       id="paint35_radial_62_2108"
       cx="0"
       cy="0"
       r="1"
       gradientUnits="userSpaceOnUse"
       gradientTransform="matrix(-97.474876,-169.09033,182.93384,-105.4552,223.9065,212.952)">
      <stop
         stop-color="white"
         id="stop265" />
      <stop
         offset="1"
         id="stop267" />
    </radialGradient>
    <radialGradient
       id="paint36_radial_62_2108"
       cx="0"
       cy="0"
       r="1"
       gradientUnits="userSpaceOnUse"
       gradientTransform="matrix(-97.463571,-169.098,182.9412,-105.44243,223.9065,212.952)">
      <stop
         stop-color="white"
         id="stop270" />
      <stop
         offset="1"
         id="stop272" />
    </radialGradient>
    <radialGradient
       id="paint37_radial_62_2108"
       cx="0"
       cy="0"
       r="1"
       gradientUnits="userSpaceOnUse"
       gradientTransform="matrix(-97.478327,-169.08949,182.93287,-105.45889,223.9055,212.952)">
      <stop
         stop-color="white"
         id="stop275" />
      <stop
         offset="1"
         id="stop277" />
    </radialGradient>
    <radialGradient
       id="paint38_radial_62_2108"
       cx="0"
       cy="0"
       r="1"
       gradientUnits="userSpaceOnUse"
       gradientTransform="matrix(-97.475376,-169.09119,182.93384,-105.4552,223.9065,212.952)">
      <stop
         stop-color="white"
         id="stop280" />
      <stop
         offset="1"
         id="stop282" />
    </radialGradient>
    <radialGradient
       id="paint39_radial_62_2108"
       cx="0"
       cy="0"
       r="1"
       gradientUnits="userSpaceOnUse"
       gradientTransform="matrix(-97.304157,-169.18978,183.0405,-105.26996,223.9065,212.952)">
      <stop
         stop-color="white"
         id="stop285" />
      <stop
         offset="1"
         id="stop287" />
    </radialGradient>
    <radialGradient
       id="paint40_radial_62_2108"
       cx="0"
       cy="0"
       r="1"
       gradientUnits="userSpaceOnUse"
       gradientTransform="matrix(-97.477828,-169.08863,182.932,-105.45839,223.9065,212.952)">
      <stop
         stop-color="white"
         id="stop290" />
      <stop
         offset="1"
         id="stop292" />
    </radialGradient>
    <radialGradient
       id="paint41_radial_62_2108"
       cx="0"
       cy="0"
       r="1"
       gradientUnits="userSpaceOnUse"
       gradientTransform="matrix(-97.481278,-169.08779,182.93103,-105.46208,223.9065,212.952)">
      <stop
         stop-color="white"
         id="stop295" />
      <stop
         offset="1"
         id="stop297" />
    </radialGradient>
  </defs>
</svg>
