<svg width="401" height="386" viewBox="0 0 401 386" fill="none" xmlns="http://www.w3.org/2000/svg">
<path d="M200.432 37.8915L67.6517 114.558L67.6479 267.905L200.425 344.586L333.207 267.916L333.209 114.568L200.431 37.8915" fill="url(#paint0_radial_1_185)"/>
<path d="M200.432 37.8915L67.6517 114.558L67.6479 267.905L200.423 344.586L333.207 267.916L333.209 114.568L200.431 37.8915" fill="url(#paint1_radial_1_185)"/>
<path d="M200.432 37.8915L67.6517 114.558L67.6479 267.905L200.423 344.586L333.207 267.916L333.209 114.568L200.431 37.8915" fill="url(#paint2_radial_1_185)"/>
<path d="M200.432 37.8915L67.6517 114.558L67.6479 267.905L200.423 344.586L333.207 267.916L333.209 114.568L200.431 37.8915" fill="url(#paint3_radial_1_185)"/>
<path d="M200.432 37.8915L67.6517 114.558L67.6479 267.905L200.423 344.586L333.207 267.916L333.209 114.568L200.431 37.8915" fill="url(#paint4_radial_1_185)"/>
<path d="M200.432 37.8915L67.6517 114.558L67.6479 267.905L200.425 344.586L333.207 267.916L333.209 114.568L200.431 37.8915" fill="url(#paint5_radial_1_185)"/>
<path d="M200.432 37.8915L67.6517 114.558L67.6479 267.905L200.425 344.586L333.207 267.916L333.209 114.568L200.431 37.8915" fill="url(#paint6_radial_1_185)"/>
<path d="M73.7368 121.184L70.8107 126.259L70.8258 259.311L77.1185 270.206L192.339 336.748L198.192 336.751L198.35 195.575L196.074 191.634L73.7368 121.184Z" fill="white"/>
<path d="M78.9051 112.237L75.971 117.312L198.152 188.035H202.706L324.887 117.312L321.957 112.237L206.725 45.7263H194.136L78.9051 112.237Z" fill="white"/>
<path d="M202.661 336.754L208.519 336.75L323.739 270.21L330.032 259.315L330.047 126.263L327.119 121.188L204.784 191.637L202.506 195.579L202.66 336.754" fill="white"/>
<defs>
<radialGradient id="paint0_radial_1_185" cx="0" cy="0" r="1" gradientUnits="userSpaceOnUse" gradientTransform="translate(67.6517 114.558) rotate(29.8101) scale(152.897 132.861)">
<stop stop-color="#EFC706"/>
<stop offset="1" stop-color="white" stop-opacity="0"/>
</radialGradient>
<radialGradient id="paint1_radial_1_185" cx="0" cy="0" r="1" gradientUnits="userSpaceOnUse" gradientTransform="translate(200.431 37.8916) rotate(89.881) scale(153.077 132.441)">
<stop stop-color="#07EE1A"/>
<stop offset="1" stop-color="white" stop-opacity="0"/>
</radialGradient>
<radialGradient id="paint2_radial_1_185" cx="0" cy="0" r="1" gradientUnits="userSpaceOnUse" gradientTransform="translate(333.209 114.568) rotate(150.148) scale(153.489 132.442)">
<stop stop-color="#05C3F0"/>
<stop offset="1" stop-color="white" stop-opacity="0"/>
</radialGradient>
<radialGradient id="paint3_radial_1_185" cx="0" cy="0" r="1" gradientUnits="userSpaceOnUse" gradientTransform="translate(333.206 267.916) rotate(-149.971) scale(153.759 132.442)">
<stop stop-color="#3D3DF5"/>
<stop offset="1" stop-color="white" stop-opacity="0"/>
</radialGradient>
<radialGradient id="paint4_radial_1_185" cx="0" cy="0" r="1" gradientUnits="userSpaceOnUse" gradientTransform="translate(200.424 344.586) rotate(-90.1262) scale(153.618 132.441)">
<stop stop-color="#F30201"/>
<stop offset="1" stop-color="white" stop-opacity="0"/>
</radialGradient>
<radialGradient id="paint5_radial_1_185" cx="0" cy="0" r="1" gradientUnits="userSpaceOnUse" gradientTransform="translate(67.6477 267.905) rotate(-30.0675) scale(153.163 133.201)">
<stop stop-color="#F55C01"/>
<stop offset="1" stop-color="white" stop-opacity="0"/>
</radialGradient>
<radialGradient id="paint6_radial_1_185" cx="0" cy="0" r="1" gradientUnits="userSpaceOnUse" gradientTransform="translate(200.086 190.968) rotate(90.0052) scale(153.342 133.201)">
<stop stop-color="#A541B4"/>
<stop offset="1" stop-color="white" stop-opacity="0"/>
</radialGradient>
</defs>
</svg>
