<svg width="401" height="386" viewBox="0 0 401 386" fill="none" xmlns="http://www.w3.org/2000/svg">
<path d="M200.432 37.8914L67.6517 114.558L67.6479 267.905L200.425 344.586L333.206 267.916L333.209 114.568L200.431 37.8914" fill="white"/>
<path d="M200.432 37.8914L67.6517 114.558L67.6479 267.905L200.425 344.586L333.206 267.916L333.209 114.568L200.431 37.8914" fill="url(#paint0_radial_1_351)"/>
<path d="M200.432 37.8914L67.6517 114.558L67.6479 267.905L200.423 344.586L333.206 267.916L333.209 114.568L200.431 37.8914" fill="url(#paint1_radial_1_351)"/>
<path d="M200.432 37.8914L67.6517 114.558L67.6479 267.905L200.423 344.586L333.206 267.916L333.209 114.568L200.431 37.8914" fill="url(#paint2_radial_1_351)"/>
<path d="M200.432 37.8914L67.6517 114.558L67.6479 267.905L200.423 344.586L333.206 267.916L333.209 114.568L200.431 37.8914" fill="url(#paint3_radial_1_351)"/>
<path d="M200.432 37.8914L67.6517 114.558L67.6479 267.905L200.423 344.586L333.206 267.916L333.209 114.568L200.431 37.8914" fill="url(#paint4_radial_1_351)"/>
<path d="M200.432 37.8914L67.6517 114.558L67.6479 267.905L200.425 344.586L333.206 267.916L333.209 114.568L200.431 37.8914" fill="url(#paint5_radial_1_351)"/>
<path d="M200.432 37.8914L67.6517 114.558L67.6479 267.905L200.425 344.586L333.206 267.916L333.209 114.568L200.431 37.8914" fill="url(#paint6_radial_1_351)"/>
<path d="M70.8238 200.968V259.311L77.1179 270.206L127.64 299.376L70.8238 200.968Z" fill="white"/>
<path d="M194.134 45.7263L143.614 74.896H257.243L206.725 45.7263H194.134Z" fill="white"/>
<path d="M330.031 200.971L273.213 299.384L323.739 270.21L330.031 259.315V200.971" fill="white"/>
<path d="M103.929 250.069L134.895 303.594L192.338 336.748L208.519 336.751L265.96 303.598L296.928 250.073L202.507 195.579L198.35 195.575L103.929 250.069Z" fill="white"/>
<path d="M78.9037 112.237L70.8093 126.259L70.8017 192.575L101.669 246.16L196.071 191.634L198.149 188.035L198.168 79.0151L136.338 79.0706L78.9037 112.237Z" fill="white"/>
<path d="M202.686 79.0151L202.705 188.035L204.782 191.637L299.186 246.164L330.053 192.579L330.042 126.263L321.951 112.237L264.514 79.0704L202.686 79.0151Z" fill="white"/>
<defs>
<radialGradient id="paint0_radial_1_351" cx="0" cy="0" r="1" gradientUnits="userSpaceOnUse" gradientTransform="translate(67.6517 114.558) rotate(29.8101) scale(152.897 132.86)">
<stop stop-color="#EFC706"/>
<stop offset="1" stop-color="white" stop-opacity="0"/>
</radialGradient>
<radialGradient id="paint1_radial_1_351" cx="0" cy="0" r="1" gradientUnits="userSpaceOnUse" gradientTransform="translate(200.431 37.8916) rotate(89.881) scale(153.077 132.441)">
<stop stop-color="#07EE1A"/>
<stop offset="1" stop-color="white" stop-opacity="0"/>
</radialGradient>
<radialGradient id="paint2_radial_1_351" cx="0" cy="0" r="1" gradientUnits="userSpaceOnUse" gradientTransform="translate(333.209 114.568) rotate(150.148) scale(153.489 132.442)">
<stop stop-color="#05C3F0"/>
<stop offset="1" stop-color="white" stop-opacity="0"/>
</radialGradient>
<radialGradient id="paint3_radial_1_351" cx="0" cy="0" r="1" gradientUnits="userSpaceOnUse" gradientTransform="translate(333.206 267.916) rotate(-149.971) scale(153.759 132.442)">
<stop stop-color="#3D3DF5"/>
<stop offset="1" stop-color="white" stop-opacity="0"/>
</radialGradient>
<radialGradient id="paint4_radial_1_351" cx="0" cy="0" r="1" gradientUnits="userSpaceOnUse" gradientTransform="translate(200.424 344.586) rotate(-90.1262) scale(153.618 132.441)">
<stop stop-color="#F30201"/>
<stop offset="1" stop-color="white" stop-opacity="0"/>
</radialGradient>
<radialGradient id="paint5_radial_1_351" cx="0" cy="0" r="1" gradientUnits="userSpaceOnUse" gradientTransform="translate(67.6477 267.905) rotate(-30.0675) scale(153.163 133.201)">
<stop stop-color="#F55C01"/>
<stop offset="1" stop-color="white" stop-opacity="0"/>
</radialGradient>
<radialGradient id="paint6_radial_1_351" cx="0" cy="0" r="1" gradientUnits="userSpaceOnUse" gradientTransform="translate(200.086 190.968) rotate(90.0052) scale(153.342 133.201)">
<stop stop-color="#A541B4"/>
<stop offset="1" stop-color="white" stop-opacity="0"/>
</radialGradient>
</defs>
</svg>
