<svg width="401" height="386" viewBox="0 0 401 386" fill="none" xmlns="http://www.w3.org/2000/svg">
<path d="M200.432 37.7669L67.6514 114.181L67.6469 267.024L200.424 343.453L333.206 267.034L333.21 114.191L200.431 37.7669" fill="white"/>
<path d="M200.432 37.7669L67.6514 114.181L67.6469 267.024L200.424 343.453L333.206 267.035L333.21 114.191L200.431 37.7669" fill="url(#paint0_radial_1_2)"/>
<path d="M200.432 37.7669L67.6514 114.181L67.6469 267.024L200.424 343.453L333.206 267.035L333.21 114.191L200.431 37.7669" fill="url(#paint1_radial_1_2)"/>
<path d="M200.432 37.7669L67.6514 114.181L67.6469 267.024L200.424 343.453L333.206 267.034L333.21 114.191L200.431 37.7669" fill="url(#paint2_radial_1_2)"/>
<path d="M200.432 37.7669L67.6514 114.181L67.6469 267.024L200.424 343.453L333.206 267.034L333.21 114.191L200.431 37.7669" fill="url(#paint3_radial_1_2)"/>
<path d="M200.432 37.7669L67.6514 114.181L67.6469 267.024L200.424 343.453L333.206 267.034L333.21 114.191L200.431 37.7669" fill="url(#paint4_radial_1_2)"/>
<path d="M200.432 37.7669L67.6514 114.181L67.6469 267.024L200.424 343.453L333.206 267.035L333.21 114.191L200.431 37.7669" fill="url(#paint5_radial_1_2)"/>
<path d="M200.432 37.7669L67.6514 114.181L67.6469 267.024L200.424 343.453L333.206 267.035L333.21 114.191L200.431 37.7669" fill="url(#paint6_radial_1_2)"/>
<path d="M198.331 45.6995L73.4889 261.22L196.076 190.476L198.154 186.889L198.331 45.6995" fill="white"/>
<path d="M202.535 45.6995L202.709 186.889L204.787 190.479L327.374 261.223L202.535 45.6995Z" fill="white"/>
<path d="M75.589 264.851L198.353 194.405L202.51 194.409L325.274 264.854L75.589 264.851Z" fill="white"/>
<path d="M200.432 37.7669L194.138 45.0482L70.8277 257.931L67.6469 267.024L67.6514 114.181L200.432 37.7669Z" fill="white"/>
<path d="M333.21 114.191L200.432 37.7669L206.728 45.0482L330.035 257.934L333.206 267.034L333.21 114.191Z" fill="white"/>
<path d="M67.6469 267.024L77.1207 268.79L323.742 268.794L333.206 267.034L200.367 342.91L67.6469 267.024" fill="white"/>
<defs>
<radialGradient id="paint0_radial_1_2" cx="0" cy="0" r="1" gradientUnits="userSpaceOnUse" gradientTransform="translate(67.6514 114.181) rotate(29.7287) scale(152.773 132.531)">
<stop stop-color="#EFC706"/>
<stop offset="1" stop-color="white" stop-opacity="0"/>
</radialGradient>
<radialGradient id="paint1_radial_1_2" cx="0" cy="0" r="1" gradientUnits="userSpaceOnUse" gradientTransform="translate(200.431 37.767) rotate(89.8806) scale(152.574 132.441)">
<stop stop-color="#07EE1A"/>
<stop offset="1" stop-color="white" stop-opacity="0"/>
</radialGradient>
<radialGradient id="paint2_radial_1_2" cx="0" cy="0" r="1" gradientUnits="userSpaceOnUse" gradientTransform="translate(333.21 114.191) rotate(150.23) scale(153.365 132.114)">
<stop stop-color="#05C3F0"/>
<stop offset="1" stop-color="white" stop-opacity="0"/>
</radialGradient>
<radialGradient id="paint3_radial_1_2" cx="0" cy="0" r="1" gradientUnits="userSpaceOnUse" gradientTransform="translate(333.206 267.035) rotate(-150.053) scale(153.633 132.115)">
<stop stop-color="#3D3DF5"/>
<stop offset="1" stop-color="white" stop-opacity="0"/>
</radialGradient>
<radialGradient id="paint4_radial_1_2" cx="0" cy="0" r="1" gradientUnits="userSpaceOnUse" gradientTransform="translate(200.424 343.453) rotate(-90.1266) scale(153.113 132.442)">
<stop stop-color="#F30201"/>
<stop offset="1" stop-color="white" stop-opacity="0"/>
</radialGradient>
<radialGradient id="paint5_radial_1_2" cx="0" cy="0" r="1" gradientUnits="userSpaceOnUse" gradientTransform="translate(67.6469 267.024) rotate(-29.9856) scale(153.038 132.873)">
<stop stop-color="#F55C01"/>
<stop offset="1" stop-color="white" stop-opacity="0"/>
</radialGradient>
<radialGradient id="paint6_radial_1_2" cx="0" cy="0" r="1" gradientUnits="userSpaceOnUse" gradientTransform="translate(200.085 190.34) rotate(90.0052) scale(152.837 133.201)">
<stop stop-color="#A541B4"/>
<stop offset="1" stop-color="white" stop-opacity="0"/>
</radialGradient>
</defs>
</svg>
