<svg width="401" height="386" viewBox="0 0 401 386" fill="none" xmlns="http://www.w3.org/2000/svg">
<path d="M199.419 38.5934L66.639 115.259L66.6352 268.606L199.412 345.287L332.194 268.616L332.198 115.27L199.419 38.5934" fill="white"/>
<path d="M199.419 38.5934L66.639 115.259L66.6352 268.606L199.412 345.287L332.194 268.617L332.198 115.27L199.419 38.5934" fill="url(#paint0_radial_1_505)"/>
<path d="M199.419 38.5934L66.639 115.259L66.6352 268.606L199.412 345.287L332.194 268.617L332.198 115.27L199.419 38.5934" fill="url(#paint1_radial_1_505)"/>
<path d="M199.419 38.5934L66.639 115.259L66.6352 268.606L199.412 345.287L332.194 268.616L332.198 115.27L199.419 38.5934" fill="url(#paint2_radial_1_505)"/>
<path d="M199.419 38.5934L66.639 115.259L66.6352 268.606L199.412 345.287L332.194 268.616L332.198 115.27L199.419 38.5934" fill="url(#paint3_radial_1_505)"/>
<path d="M199.419 38.5934L66.639 115.259L66.6352 268.606L199.412 345.287L332.194 268.616L332.198 115.27L199.419 38.5934" fill="url(#paint4_radial_1_505)"/>
<path d="M199.419 38.5934L66.639 115.259L66.6352 268.606L199.412 345.287L332.194 268.617L332.198 115.27L199.419 38.5934" fill="url(#paint5_radial_1_505)"/>
<path d="M199.419 38.5934L66.639 115.259L66.6352 268.606L199.412 345.287L332.194 268.617L332.198 115.27L199.419 38.5934" fill="url(#paint6_radial_1_505)"/>
<path d="M180.872 75.0314C186.354 75.0314 191.837 75.0314 197.319 75.0314C197.319 65.5383 197.319 56.0452 197.319 46.5521C191.837 56.0452 186.354 65.5383 180.872 75.0314Z" fill="white"/>
<path d="M142.604 75.0684C153.825 75.0684 165.045 75.0684 176.266 75.0684C181.886 65.3452 187.506 55.622 193.126 45.8988C176.285 55.622 159.445 65.3452 142.604 75.0684Z" fill="white"/>
<path d="M77.8947 112.41C103.542 112.41 129.189 112.41 154.836 112.41C161.21 101.368 167.585 90.3255 173.959 79.2834C161.082 79.2683 148.206 79.2569 135.33 79.243C116.185 90.2986 97.0397 101.354 77.8947 112.41V112.41Z" fill="white"/>
<path d="M159.719 112.148C172.2 112.132 184.68 112.117 197.16 112.1C197.16 101.129 197.16 90.1582 197.16 79.1874C191.022 79.1874 184.884 79.1874 178.746 79.1874C172.404 90.1741 166.062 101.161 159.719 112.148V112.148Z" fill="white"/>
<path d="M74.9604 117.485C94.1755 128.577 113.391 139.67 132.606 150.762C139.011 139.669 145.416 128.575 151.821 117.481C126.201 117.482 100.58 117.483 74.9604 117.485V117.485Z" fill="white"/>
<path d="M136.13 152.704C145.962 158.462 155.793 164.219 165.625 169.977C175.584 152.477 185.544 134.977 195.503 117.477C182.395 117.475 169.287 117.474 156.18 117.47C149.497 129.214 142.814 140.959 136.13 152.704V152.704Z" fill="white"/>
<path d="M169.135 172.052C178.471 177.437 187.806 182.822 197.142 188.207C197.143 166.651 197.144 145.094 197.146 123.538C187.809 139.709 178.472 155.88 169.135 172.052H169.135Z" fill="white"/>
<path d="M201.519 75.0314C207.002 75.0314 212.484 75.0314 217.966 75.0314C212.485 65.5383 207.004 56.0452 201.523 46.5521C201.522 56.0452 201.521 65.5383 201.519 75.0314H201.519Z" fill="white"/>
<path d="M222.572 75.0684C233.793 75.0684 245.013 75.0684 256.234 75.0684C239.394 65.3452 222.555 55.622 205.716 45.8988C211.335 55.622 216.954 65.3452 222.572 75.0684V75.0684Z" fill="white"/>
<path d="M224.879 79.2834C231.253 90.3255 237.628 101.368 244.002 112.41C269.65 112.41 295.299 112.41 320.947 112.41C301.801 101.354 282.655 90.2984 263.509 79.2428C250.632 79.2579 237.756 79.2693 224.879 79.2832V79.2834Z" fill="white"/>
<path d="M201.678 112.1C214.158 112.115 226.639 112.13 239.119 112.148C232.777 101.161 226.434 90.1742 220.092 79.1875C213.954 79.1875 207.816 79.1875 201.678 79.1875C201.678 90.1582 201.678 101.129 201.678 112.1V112.1Z" fill="white"/>
<path d="M266.233 150.762C285.448 139.67 304.663 128.577 323.878 117.485C298.258 117.483 272.638 117.483 247.018 117.481C253.423 128.575 259.828 139.668 266.233 150.762V150.762Z" fill="white"/>
<path d="M203.335 117.477C213.296 134.977 223.256 152.477 233.217 169.977C243.048 164.219 252.88 158.462 262.711 152.704C256.027 140.959 249.343 129.214 242.658 117.47C229.551 117.472 216.443 117.474 203.335 117.477V117.477Z" fill="white"/>
<path d="M201.696 188.207C211.032 182.822 220.368 177.437 229.703 172.052C220.366 155.88 211.03 139.709 201.693 123.538C201.694 145.094 201.695 166.651 201.696 188.207H201.696Z" fill="white"/>
<path d="M301.695 248.546C309.917 253.293 318.14 258.04 326.362 262.786C320.881 253.293 315.4 243.8 309.919 234.307C307.177 239.053 304.436 243.8 301.695 248.546Z" fill="white"/>
<path d="M312.189 230.298C317.8 240.028 323.411 249.757 329.023 259.486C329.023 240.039 329.023 220.591 329.023 201.144C323.411 210.862 317.8 220.58 312.189 230.298V230.298Z" fill="white"/>
<path d="M290.567 193.064C296.942 204.107 303.318 215.151 309.693 226.194C316.144 215.046 322.594 203.898 329.045 192.75C329.043 170.645 329.041 148.54 329.037 126.435C316.214 148.645 303.39 170.855 290.567 193.064H290.567Z" fill="white"/>
<path d="M269.673 229.881C279.174 235.366 288.676 240.851 298.178 246.336C301.246 241.019 304.315 235.703 307.383 230.387C301.039 219.402 294.696 208.416 288.352 197.431C282.126 208.247 275.899 219.064 269.673 229.881V229.881Z" fill="white"/>
<path d="M268.469 154.638C274.874 165.731 281.279 176.825 287.684 187.919C300.493 165.733 313.302 143.546 326.111 121.36C306.897 132.453 287.683 143.545 268.469 154.638V154.638Z" fill="white"/>
<path d="M235.317 173.62C245.493 190.997 255.669 208.374 265.845 225.751C272.399 214.403 278.953 203.054 285.507 191.706C278.678 180.044 271.85 168.382 265.022 156.719C255.12 162.353 245.219 167.987 235.317 173.62Z" fill="white"/>
<path d="M203.774 191.809C222.441 202.587 241.107 213.364 259.773 224.142C250.438 207.973 241.102 191.804 231.767 175.636C222.436 181.027 213.105 186.418 203.774 191.809V191.809Z" fill="white"/>
<path d="M291.372 266.429C302.335 266.429 313.298 266.429 324.262 266.429C316.039 261.681 307.817 256.934 299.595 252.186C296.854 256.934 294.113 261.681 291.372 266.429Z" fill="white"/>
<path d="M289.039 270.401C283.427 280.119 277.816 289.837 272.205 299.555C289.046 289.831 305.888 280.106 322.73 270.382C311.5 270.386 300.269 270.397 289.039 270.401V270.401Z" fill="white"/>
<path d="M207.51 336.922C226.657 325.872 245.804 314.821 264.952 303.77C271.379 292.61 277.806 281.45 284.233 270.29C271.482 270.29 258.731 270.29 245.98 270.29C233.157 292.501 220.333 314.712 207.51 336.922V336.922Z" fill="white"/>
<path d="M248.653 266.193C261.338 266.193 274.024 266.193 286.71 266.193C289.78 260.877 292.849 255.56 295.919 250.244C286.417 244.76 276.915 239.275 267.414 233.79C261.16 244.591 254.906 255.392 248.653 266.193Z" fill="white"/>
<path d="M201.652 336.926C214.462 314.74 227.272 292.554 240.082 270.367C227.272 270.367 214.462 270.367 201.652 270.367C201.652 292.554 201.652 314.74 201.652 336.926Z" fill="white"/>
<path d="M201.733 266.344C215.247 266.427 228.761 266.509 242.275 266.591C248.825 255.24 255.375 243.89 261.925 232.539C241.791 232.414 221.657 232.29 201.523 232.166C201.593 243.559 201.663 254.951 201.733 266.344H201.733Z" fill="white"/>
<path d="M201.482 228.084C220.156 228.084 238.83 228.084 257.503 228.084C238.835 217.306 220.166 206.529 201.497 195.751C201.493 206.529 201.49 217.306 201.482 228.084H201.482Z" fill="white"/>
<path d="M74.5766 266.425C85.5399 266.425 96.5032 266.425 107.467 266.425C104.725 261.678 101.984 256.93 99.2431 252.182C91.021 256.93 82.7987 261.678 74.5766 266.425Z" fill="white"/>
<path d="M126.63 299.548C121.018 289.831 115.407 280.114 109.796 270.397C98.5665 270.393 87.3374 270.386 76.1083 270.378C92.9489 280.101 109.789 289.824 126.63 299.547V299.548Z" fill="white"/>
<path d="M133.886 303.767C153.034 314.817 172.181 325.868 191.329 336.919C178.505 314.708 165.681 292.497 152.858 270.286C140.106 270.286 127.353 270.286 114.601 270.286C121.03 281.446 127.458 292.607 133.886 303.767V303.767Z" fill="white"/>
<path d="M102.919 250.241C105.988 255.557 109.056 260.873 112.125 266.189C124.812 266.189 137.499 266.189 150.186 266.189C143.931 255.388 137.676 244.587 131.421 233.786C121.92 239.271 112.42 244.756 102.919 250.241V250.241Z" fill="white"/>
<path d="M197.182 336.922C197.182 314.736 197.182 292.55 197.182 270.364C184.374 270.364 171.565 270.364 158.756 270.364C171.565 292.55 184.374 314.736 197.182 336.922V336.922Z" fill="white"/>
<path d="M136.913 232.535C143.463 243.886 150.013 255.237 156.564 266.588C170.077 266.505 183.591 266.423 197.105 266.341C197.175 254.948 197.245 243.555 197.315 232.162C177.181 232.286 157.047 232.411 136.913 232.535L136.913 232.535Z" fill="white"/>
<path d="M141.335 228.08C160.008 228.08 178.682 228.08 197.356 228.08C197.348 217.303 197.348 206.525 197.341 195.747C178.672 206.525 160.003 217.303 141.334 228.08H141.335Z" fill="white"/>
<path d="M72.4764 262.782C80.6986 258.036 88.9208 253.289 97.143 248.543C94.4019 243.796 91.6607 239.05 88.9196 234.303C83.4385 243.796 77.9575 253.289 72.4764 262.782V262.782Z" fill="white"/>
<path d="M69.8152 259.483C75.4255 249.753 81.0357 240.024 86.646 230.295C81.0357 220.576 75.4255 210.858 69.8152 201.14C69.8152 220.588 69.8152 240.035 69.8152 259.483V259.483Z" fill="white"/>
<path d="M69.7931 192.747C76.2437 203.895 82.6942 215.043 89.1447 226.19C95.5202 215.147 101.896 204.104 108.271 193.06C95.4476 170.851 82.6241 148.641 69.8005 126.432C69.798 148.537 69.7967 170.642 69.7929 192.747H69.7931Z" fill="white"/>
<path d="M91.4553 230.383C94.5237 235.699 97.5921 241.016 100.66 246.332C110.162 240.847 119.664 235.362 129.166 229.878C122.939 219.059 116.712 208.241 110.486 197.423C104.142 208.41 97.7987 219.397 91.4553 230.383V230.383Z" fill="white"/>
<path d="M111.154 187.915C117.559 176.822 123.964 165.728 130.369 154.634C111.155 143.542 91.9413 132.449 72.7274 121.357C85.5362 143.543 98.345 165.729 111.154 187.915V187.915Z" fill="white"/>
<path d="M113.328 191.702C119.883 203.049 126.438 214.397 132.993 225.744C143.168 208.368 153.343 190.992 163.517 173.617C153.617 167.983 143.717 162.349 133.816 156.716C126.987 168.378 120.157 180.04 113.328 191.702V191.702Z" fill="white"/>
<path d="M139.065 224.138C157.731 213.361 176.397 202.583 195.064 191.806C185.733 186.414 176.402 181.023 167.072 175.632C157.736 191.801 148.4 207.969 139.065 224.138Z" fill="white"/>
<defs>
<radialGradient id="paint0_radial_1_505" cx="0" cy="0" r="1" gradientUnits="userSpaceOnUse" gradientTransform="translate(66.639 115.259) rotate(29.8099) scale(152.896 132.86)">
<stop stop-color="#EFC706"/>
<stop offset="1" stop-color="white" stop-opacity="0"/>
</radialGradient>
<radialGradient id="paint1_radial_1_505" cx="0" cy="0" r="1" gradientUnits="userSpaceOnUse" gradientTransform="translate(199.419 38.5935) rotate(89.881) scale(153.077 132.441)">
<stop stop-color="#07EE1A"/>
<stop offset="1" stop-color="white" stop-opacity="0"/>
</radialGradient>
<radialGradient id="paint2_radial_1_505" cx="0" cy="0" r="1" gradientUnits="userSpaceOnUse" gradientTransform="translate(332.197 115.27) rotate(150.149) scale(153.49 132.441)">
<stop stop-color="#05C3F0"/>
<stop offset="1" stop-color="white" stop-opacity="0"/>
</radialGradient>
<radialGradient id="paint3_radial_1_505" cx="0" cy="0" r="1" gradientUnits="userSpaceOnUse" gradientTransform="translate(332.194 268.616) rotate(-149.971) scale(153.759 132.441)">
<stop stop-color="#3D3DF5"/>
<stop offset="1" stop-color="white" stop-opacity="0"/>
</radialGradient>
<radialGradient id="paint4_radial_1_505" cx="0" cy="0" r="1" gradientUnits="userSpaceOnUse" gradientTransform="translate(199.411 345.287) rotate(-90.1262) scale(153.617 132.442)">
<stop stop-color="#F30201"/>
<stop offset="1" stop-color="white" stop-opacity="0"/>
</radialGradient>
<radialGradient id="paint5_radial_1_505" cx="0" cy="0" r="1" gradientUnits="userSpaceOnUse" gradientTransform="translate(66.6345 268.606) rotate(-30.0673) scale(153.164 133.201)">
<stop stop-color="#F55C01"/>
<stop offset="1" stop-color="white" stop-opacity="0"/>
</radialGradient>
<radialGradient id="paint6_radial_1_505" cx="0" cy="0" r="1" gradientUnits="userSpaceOnUse" gradientTransform="translate(199.073 191.67) rotate(90.0052) scale(153.341 133.201)">
<stop stop-color="#A541B4"/>
<stop offset="1" stop-color="white" stop-opacity="0"/>
</radialGradient>
</defs>
</svg>
