<?xml version="1.0" encoding="UTF-8" standalone="no"?>
<!-- Created with Inkscape (http://www.inkscape.org/) -->

<svg
   width="55mm"
   height="55mm"
   viewBox="0 0 55 55"
   version="1.1"
   id="svg938"
   inkscape:version="1.1.2 (b8e25be833, 2022-02-05)"
   sodipodi:docname="next.svg"
   xmlns:inkscape="http://www.inkscape.org/namespaces/inkscape"
   xmlns:sodipodi="http://sodipodi.sourceforge.net/DTD/sodipodi-0.dtd"
   xmlns="http://www.w3.org/2000/svg"
   xmlns:svg="http://www.w3.org/2000/svg">
  <sodipodi:namedview
     id="namedview940"
     pagecolor="#ffffff"
     bordercolor="#666666"
     borderopacity="1.0"
     inkscape:pageshadow="2"
     inkscape:pageopacity="0.0"
     inkscape:pagecheckerboard="0"
     inkscape:document-units="mm"
     showgrid="false"
     inkscape:zoom="2.1593938"
     inkscape:cx="92.155493"
     inkscape:cy="137.5386"
     inkscape:window-width="1920"
     inkscape:window-height="1017"
     inkscape:window-x="-8"
     inkscape:window-y="-8"
     inkscape:window-maximized="1"
     inkscape:current-layer="layer1" />
  <defs
     id="defs935" />
  <g
     inkscape:label="Слой 1"
     inkscape:groupmode="layer"
     id="layer1">
    <path
       style="fill:#ffffff;stroke-width:0.107422;fill-opacity:1"
       d="m 5.1553266,50.663683 c -1.279537,-0.165003 -2.494174,-1.073456 -3.06217,-2.290264 -0.255667,-0.547711 -0.300837,-0.782084 -0.300694,-1.560218 1.49e-4,-0.812205 0.03887,-0.9943 0.34268,-1.611328 0.316018,-0.641834 0.962609,-1.293895 8.3593094,-8.430017 4.409238,-4.253906 8.382493,-8.073354 8.829453,-8.487662 l 0.812656,-0.753286 -8.42018,-8.118052 C 7.0852816,14.947928 3.0427286,11.017361 2.7329286,10.678264 1.3811626,9.1986604 1.4382396,6.9347114 2.8632336,5.5097174 c 1.357353,-1.357353 3.552508,-1.597856 5.15953,-0.565282 0.392088,0.251931 19.4959994,18.5785406 20.7236324,19.8804276 0.658764,0.698608 1.016526,1.464876 1.099678,2.355332 0.07374,0.789689 -0.138198,1.682363 -0.556909,2.345644 -0.142043,0.22501 -4.332504,4.337383 -9.312135,9.138605 -4.979631,4.801222 -9.659845,9.315886 -10.4004754,10.032586 -1.485463,1.437469 -2.104335,1.820822 -3.165119,1.960593 -0.354493,0.04671 -0.919741,0.04944 -1.256109,0.0061 z m 22.9016164,-0.08136 c -0.893268,-0.273419 -1.901986,-1.051812 -2.390609,-1.844755 -0.607076,-0.985168 -0.647004,-2.451526 -0.09717,-3.568409 0.29849,-0.606318 1.082666,-1.395476 8.453698,-8.507415 4.46858,-4.311508 8.440918,-8.129535 8.827421,-8.484506 l 0.70273,-0.645401 -8.365713,-8.067585 c -4.601138,-4.437173 -8.620366,-8.338254 -8.931614,-8.669069 -0.80851,-0.8593406 -1.027002,-1.4065426 -1.037169,-2.5975446 -0.0071,-0.833642 0.03125,-1.051077 0.278582,-1.578726 1.027417,-2.191863 3.93463,-2.999883 5.943633,-1.651952 0.475367,0.318945 19.38385,18.4376786 20.723633,19.8580706 0.793582,0.841328 1.076097,1.535861 1.079902,2.654833 0.0027,0.804 -0.0371,0.997934 -0.333405,1.623298 -0.319492,0.67429 -0.85674,1.212178 -10.622136,10.634766 -5.657092,5.458504 -10.50684,10.082781 -10.777217,10.276171 -0.270376,0.193389 -0.731978,0.423003 -1.02578,0.510254 -0.558171,0.165759 -1.966792,0.199379 -2.428786,0.05797 z"
       id="path1011" />
  </g>
</svg>
