<?xml version="1.0" encoding="UTF-8" standalone="no"?>
<!-- Created with Inkscape (http://www.inkscape.org/) -->

<svg
   width="90mm"
   height="90mm"
   viewBox="0 0 90 90"
   version="1.1"
   id="svg5"
   inkscape:version="1.1.2 (b8e25be833, 2022-02-05)"
   sodipodi:docname="rickroll.svg"
   xmlns:inkscape="http://www.inkscape.org/namespaces/inkscape"
   xmlns:sodipodi="http://sodipodi.sourceforge.net/DTD/sodipodi-0.dtd"
   xmlns="http://www.w3.org/2000/svg"
   xmlns:svg="http://www.w3.org/2000/svg">
  <sodipodi:namedview
     id="namedview7"
     pagecolor="#ffffff"
     bordercolor="#666666"
     borderopacity="1.0"
     inkscape:pageshadow="2"
     inkscape:pageopacity="0.0"
     inkscape:pagecheckerboard="0"
     inkscape:document-units="mm"
     showgrid="false"
     inkscape:zoom="1.526922"
     inkscape:cx="152.59457"
     inkscape:cy="180.10088"
     inkscape:window-width="1920"
     inkscape:window-height="1017"
     inkscape:window-x="-8"
     inkscape:window-y="-8"
     inkscape:window-maximized="1"
     inkscape:current-layer="layer1" />
  <defs
     id="defs2" />
  <g
     inkscape:label="Слой 1"
     inkscape:groupmode="layer"
     id="layer1">
    <path
       style="fill:#ffffff;fill-opacity:1;stroke:none;stroke-width:0.264583"
       d="M 6.635417,6.635415 V 25.156249 H 25.156251 V 6.635415 H 6.635417 m 26.458334,0 v 2.645833 h 2.645833 V 6.635415 h -2.645833 m 5.291667,0 v 5.291667 h 2.645833 v 2.645833 h -2.645833 v 5.291667 h -2.645834 v 2.645833 h -2.645833 v -5.291667 h 2.645833 v -5.291666 h -2.645833 v 5.291666 h -5.291667 v 2.645834 h 2.645833 v 2.645833 h -2.645833 v 2.645834 h 2.645833 v 2.645833 h 2.645834 v -2.645833 h 2.645833 v -2.645834 h 2.645834 v 2.645834 h 2.645833 v 2.645833 h 2.645833 v 5.291667 h -2.645833 v 2.645833 h 2.645833 v -2.645833 h 5.291668 v -5.291667 h 2.645833 v 10.583334 h -2.645833 v -2.645834 h -2.645834 v 2.645834 h 2.645834 v 2.645833 h -2.645834 v 2.645833 h -2.645834 v -2.645833 h -2.645833 v -2.645833 h -2.645833 v -2.645834 h -2.645834 v -2.645833 h 2.645834 v -5.291667 h -2.645834 v 2.645833 h -5.291667 v 2.645834 h -7.9375 v -2.645834 h 2.645834 v -2.645833 h -2.645834 v 2.645833 H 19.864584 V 27.802082 H 17.21875 v 2.645833 h 2.645834 v 2.645834 h 2.645833 v 2.645833 h -2.645833 v 2.645834 h 2.645833 v 2.645833 H 17.21875 v -2.645833 h -2.645833 v -2.645834 h 2.645833 v -2.645833 h -2.645833 v 2.645833 H 11.927084 V 33.093749 H 9.28125 v 5.291667 h 5.291667 v 2.645833 h -7.9375 v 5.291667 h 5.291667 v -2.645834 h 2.645833 V 41.031249 H 17.21875 V 51.614583 H 6.635417 v 2.645833 H 9.28125 v 2.645833 H 6.635417 v 2.645834 H 9.28125 v 2.645833 h 2.645834 V 59.552083 H 9.28125 v -2.645834 h 2.645834 v -2.645833 h 2.645833 v 2.645833 h 5.291667 v -2.645833 h 2.645834 v 2.645833 h 2.645834 v -2.645833 h 7.9375 v 5.291667 h -2.645834 v -2.645834 h -2.645834 v 2.645834 H 14.572917 v 2.645833 h 13.229167 v 2.645834 h 2.645833 v -2.645834 h 2.645834 v 5.291667 h -2.645834 v 2.645833 h -2.645833 v 2.645834 h 2.645833 v -2.645834 h 2.645834 v 2.645834 h 2.645833 v 2.645833 h 2.645834 v 2.645834 h -5.291667 v 2.645833 h 2.645833 v 2.645835 h 2.645834 v -5.291668 h 5.291666 v -2.645834 h 5.291667 v -5.291667 h 5.291667 v 2.645834 h 2.645833 v -5.291667 h 2.645834 v 7.9375 h -2.645834 v 5.291667 h 2.645834 v 2.645835 h 7.9375 V 80.71875 h -5.291667 v -2.645833 h -2.645833 v -2.645834 h 2.645833 V 72.78125 h 5.291667 v 5.291667 h 7.9375 v -2.645834 h 2.645834 V 72.78125 h 2.645833 v -5.291667 h 2.64583 v -5.291667 h -7.937497 v 2.645834 h -2.645833 v -5.291667 h 2.645833 v -2.645834 h -5.291667 v -2.645833 h -2.645833 v -2.645833 h 2.645833 v -2.645834 h -2.645833 v -2.645833 h 5.291667 v 7.9375 h 5.291667 v 5.291667 h 2.645833 v -2.645834 h 2.64583 v -7.9375 h -2.64583 v -2.645833 h 2.64583 v -7.9375 h -2.64583 v -2.645834 h 2.64583 v -5.291667 h -2.64583 v -2.645833 h -2.645833 v 2.645833 h 2.645833 v 2.645834 h -5.291666 v -2.645834 h -2.645834 v -2.645833 h -2.645834 v 2.645833 h 2.645834 v 2.645834 h -2.645834 v 2.645833 h 2.645834 v -2.645833 h 2.645833 v 2.645833 h 2.645834 v 5.291667 h 2.645833 v 2.645833 h -2.645833 v 7.937501 H 75.427086 V 38.385416 h -2.645834 v 5.291666 h -5.291667 v -2.645833 h 2.645833 v -2.645833 h -5.291666 v 2.645833 h -5.291667 v 2.645833 h 2.645833 v 7.937501 h -5.291667 v 2.645833 h -2.645833 v -7.9375 h 2.645833 v 2.645833 h 2.645834 v -2.645833 h -2.645834 v -5.291667 h -2.645833 v 5.291667 h -2.645833 v -7.9375 h 5.291666 v -2.645834 h -2.645833 v -7.9375 h 7.9375 v -5.291667 h -2.645832 v -5.291667 h 2.645832 v -2.645833 h -2.645832 v -2.645833 h 2.645832 V 6.635415 h -5.291667 v 7.9375 h -5.291666 v -2.645833 h 2.645833 V 6.635415 H 48.968751 V 9.281248 H 43.677084 V 6.635415 h -5.291666 m 26.458334,0 v 18.520834 h 18.52083 V 6.635415 H 64.843752 M 22.510417,9.281248 V 22.510415 H 9.28125 V 9.281248 h 13.229167 m 5.291667,0 v 2.645834 h 2.645834 V 9.281248 h -2.645834 m 15.875,0 v 2.645834 H 41.031251 V 9.281248 h 2.645833 m 37.041669,0 V 22.510415 H 67.489586 V 9.281248 h 13.229166 m -68.791668,2.645834 v 7.9375 h 7.9375 v -7.9375 h -7.9375 m 37.041667,0 v 2.645833 h 2.645834 v 2.645833 h 5.291666 v 2.645834 h -2.645833 v 5.291667 h -2.645833 v -2.645834 h -2.645833 v 5.291667 h -2.645834 v -5.291667 h -2.645834 v 2.645834 h -2.645833 v -2.645834 h -2.645833 v -2.645833 h 2.645833 v -2.645834 h 2.645833 v 2.645834 h 2.645834 v -2.645834 h 2.645833 v -2.645833 h -2.645833 v -2.645833 h 2.645833 m 21.166667,0 v 7.9375 h 7.937501 v -7.9375 h -7.937501 m -29.104167,7.9375 v 2.645833 h 2.645833 v -2.645833 h -2.645833 m -7.9375,2.645833 v 2.645834 h -2.645834 v -2.645834 h 2.645834 m 26.458335,0 v 2.645834 h -2.645835 v -2.645834 h 2.645834 M 6.635417,27.802082 v 2.645833 H 9.28125 V 27.802082 H 6.635417 m 5.291667,0 v 2.645833 h 2.645833 v -2.645833 h -2.645833 m 52.916668,2.645833 v 2.645834 h -2.645834 v 2.645833 h -2.645832 v 2.645834 h 2.645832 v -2.645834 h 5.291668 v -5.291667 h -2.645834 m -31.750001,2.645834 v 2.645833 h 2.645833 v 2.645834 h 2.645834 v 2.645833 h 2.645833 v 2.645833 h 2.645833 v 2.645834 h -2.645833 v 2.645833 h 2.645833 v 5.291667 h 5.291668 v -5.291667 h -2.645834 v -2.645833 h 2.645834 v 2.645833 h 2.645833 v 10.583334 h 7.937501 v 2.645833 h -7.937501 v -2.645833 h -2.645833 v 2.645833 h -2.645834 v 2.645834 h -2.645834 v 2.645833 h -5.291666 v -7.9375 h -2.645834 v -5.291667 h -2.645833 v -7.9375 h 2.645833 v -5.291667 h -5.291667 v 2.645833 h -2.645833 v 2.645834 h 2.645833 v 2.645833 h -2.645833 v 2.645834 h -2.645833 v 2.645833 h -2.645834 v -2.645833 h -2.645833 v -5.291667 h 5.291667 v -2.645834 h -2.645834 v -2.645833 h 7.9375 v -2.645833 h -7.9375 v -2.645834 h 7.9375 v -2.645833 h 2.645834 m 34.395835,10.583333 v 2.645834 h -2.645834 v -2.645834 h 2.645833 m -42.333334,2.645834 v 2.645833 h -2.645834 v 2.645834 h 2.645834 v -2.645834 h 2.645833 v -2.645833 h -2.645833 m 10.583333,0 v 2.645833 h 2.645834 v 10.583334 h 2.645833 v -2.645834 h 2.645833 v -2.645833 h -2.645833 v -5.291667 h -2.645833 v -2.645833 h -2.645834 m 44.979168,5.291667 v 2.645833 h -2.645833 v -2.645833 h 2.645833 m -21.166667,2.645833 v 2.645833 h -2.645834 v -2.645833 h 2.645834 m 5.291667,0 v 2.645833 h -2.645834 v -2.645833 h 2.645834 m -18.520834,2.645833 v 2.645834 h 2.645833 v -2.645834 h -2.645833 m 23.8125,0 v 2.645834 h -2.645833 v -2.645834 h 2.645833 m -29.104167,5.291667 v 2.645834 h 2.645833 v -2.645834 h -2.645833 m 29.104167,0 v 7.9375 h -7.9375 v -7.9375 h 7.9375 M 6.635417,64.84375 V 83.364585 H 25.156251 V 64.84375 H 6.635417 m 47.625001,0 v 2.645833 H 51.614585 V 64.84375 h 2.645833 m 10.583334,0 v 2.645833 h 2.645833 V 64.84375 h -2.645833 m 13.229167,0 v 7.9375 h -2.645833 v 2.645833 h -2.645834 v -5.291667 h 2.645833 V 64.84375 h 2.645834 M 22.510417,67.489583 V 80.71875 H 9.28125 V 67.489583 h 13.229167 m 13.229167,0 v 2.645833 h -2.645833 v -2.645833 h 2.645833 m 13.229168,0 v 2.645833 h -2.645834 v -2.645833 h 2.645834 m -37.041667,2.645833 v 7.937501 h 7.9375 v -7.937501 h -7.9375 m 31.75,0 v 2.645834 h -2.645833 v -2.645834 h 2.645833 m -15.875,5.291667 v 2.645834 h 2.645833 v -2.645834 h -2.645833 m 23.812501,0 v 2.645834 h 2.645833 v -2.645834 h -2.645833 m 29.104167,0 v 2.645834 H 78.07292 v 5.291668 h 5.291663 V 80.71875 h -2.64583 v -2.645833 h 2.64583 v -2.645834 h -2.64583 m -34.395834,2.645834 v 2.645833 h 2.645833 v 2.645835 h 2.645834 V 80.71875 H 48.968752 V 78.072917 H 46.322919 M 27.802085,80.71875 v 2.645835 h 2.645833 V 80.71875 h -2.645833 m 44.979168,0 v 2.645835 h 2.645833 V 80.71875 Z"
       id="path874" />
  </g>
</svg>
