<svg width="60" height="60" viewBox="0 0 60 60" fill="none" xmlns="http://www.w3.org/2000/svg">
<path d="M53.6251 8.44257C52.4126 7.40507 50.6026 7.21257 48.7876 7.93007C47.6626 8.37257 30.0351 15.7901 13.6026 22.7076L8.17507 24.9926C6.07257 25.8451 5.00757 27.2276 5.00757 29.0951C5.00757 30.4026 5.56257 32.1801 8.20257 33.2251L17.3701 36.8926C18.1626 39.2701 20.0026 44.7901 20.4651 46.2576C20.7401 47.1276 21.4351 49.3201 23.1901 49.8326C23.5501 49.9551 23.9251 50.0176 24.3076 50.0176C25.4151 50.0176 26.2126 49.5026 26.6026 49.2026L32.4251 44.2776L39.5026 50.8201C39.7751 51.0976 41.2151 52.5001 43.1526 52.5001C45.5701 52.5001 47.4051 50.4876 47.7876 48.5401C47.9951 47.4726 54.8176 13.2176 54.8176 13.2226C55.4301 10.4751 54.3326 9.05007 53.6251 8.44257ZM42.9151 47.1651L32.5726 37.6001L24.9976 44.0126C24.1001 41.2451 21.7451 34.2076 21.7451 34.2076L21.3801 33.1101L11.3276 29.0901L15.5451 27.3176C26.2926 22.7926 45.4351 14.7351 49.7751 12.9301C48.8326 17.6551 43.6951 43.4476 42.9151 47.1651Z" fill="white"/>
<path d="M42.0001 20C41.6876 20 41.2651 20.2975 41.0401 20.4375C37.8201 22.445 21.6751 31.6325 17.2476 34.1475C18.4951 34.6475 19.3751 35 19.3751 35C19.3751 35 22.2526 43.6125 22.8501 45.5C23.4476 47.39 23.9276 47.435 23.9276 47.435C24.0601 47.4925 24.1901 47.515 24.3101 47.515C24.4076 47.515 24.4751 47.48 24.5576 47.4575L27.5001 35.9375C27.5001 35.9375 40.9076 22.3675 41.7151 21.5775C42.3651 20.945 42.5001 20.7225 42.5001 20.5025C42.5001 20.21 42.3476 20 42.0001 20Z" fill="white"/>
</svg>
