<svg width="60" height="60" viewBox="0 0 60 60" fill="none" xmlns="http://www.w3.org/2000/svg">
<path d="M30 6C16.746 6 6 16.746 6 30C6 43.254 16.746 54 30 54C43.254 54 54 43.254 54 30C54 16.746 43.254 6 30 6ZM42.722 37.934L38.986 37.986C38.986 37.986 38.18 38.144 37.126 37.416C35.728 36.456 34.41 33.958 33.382 34.282C32.34 34.614 32.372 36.862 32.372 36.862C32.372 36.862 32.38 37.258 32.142 37.516C31.884 37.794 31.378 37.766 31.378 37.766H29.704C29.704 37.766 26.012 38.072 22.758 34.68C19.214 30.982 16.082 23.684 16.082 23.684C16.082 23.684 15.898 23.224 16.094 22.988C16.316 22.728 16.914 22.72 16.914 22.72L20.914 22.7C20.914 22.7 21.29 22.766 21.562 22.966C21.784 23.13 21.91 23.438 21.91 23.438C21.91 23.438 22.556 25.076 23.414 26.56C25.086 29.452 25.862 30.086 26.43 29.776C27.258 29.324 27.01 25.688 27.01 25.688C27.01 25.688 27.026 24.368 26.594 23.78C26.258 23.322 25.626 23.186 25.35 23.152C25.124 23.122 25.492 22.598 25.972 22.362C26.692 22.01 27.964 21.99 29.466 22.004C30.636 22.016 30.974 22.088 31.43 22.2C32.81 22.534 32.342 23.822 32.342 26.912C32.342 27.902 32.164 29.294 32.876 29.752C33.184 29.95 33.934 29.782 35.804 26.594C36.694 25.082 37.36 23.306 37.36 23.306C37.36 23.306 37.506 22.99 37.732 22.854C37.964 22.714 38.276 22.758 38.276 22.758L42.486 22.732C42.486 22.732 43.75 22.58 43.956 23.154C44.172 23.754 43.484 25.156 41.764 27.45C38.94 31.218 38.626 30.868 40.972 33.048C43.212 35.13 43.674 36.142 43.752 36.27C44.678 37.812 42.722 37.934 42.722 37.934Z" fill="white"/>
</svg>
