<svg width="275" height="316" viewBox="0 0 275 316" fill="none" xmlns="http://www.w3.org/2000/svg">
<g filter="url(#filter0_d_1_271)">
<path d="M137.419 0.593445L4.639 77.2593L4.63522 230.606L137.412 307.287L270.194 230.616L270.198 77.2698L137.419 0.593445" fill="white"/>
<path d="M137.419 0.593445L4.639 77.2593L4.63522 230.606L137.412 307.287L270.194 230.617L270.198 77.2698L137.419 0.593445" fill="url(#paint0_radial_1_271)"/>
<path d="M137.419 0.593445L4.639 77.2593L4.63522 230.606L137.412 307.287L270.194 230.617L270.198 77.2698L137.419 0.593445" fill="url(#paint1_radial_1_271)"/>
<path d="M137.419 0.593414L4.639 77.2592L4.63522 230.606L137.412 307.287L270.194 230.616L270.198 77.2698L137.419 0.593414" fill="url(#paint2_radial_1_271)"/>
<path d="M137.419 0.593414L4.639 77.2592L4.63522 230.606L137.412 307.287L270.194 230.616L270.198 77.2698L137.419 0.593414" fill="url(#paint3_radial_1_271)"/>
<path d="M137.419 0.593414L4.639 77.2592L4.63522 230.606L137.412 307.287L270.194 230.616L270.198 77.2698L137.419 0.593414" fill="url(#paint4_radial_1_271)"/>
<path d="M137.419 0.593445L4.639 77.2593L4.63522 230.606L137.412 307.287L270.194 230.617L270.198 77.2698L137.419 0.593445" fill="url(#paint5_radial_1_271)"/>
<path d="M137.419 0.593445L4.639 77.2593L4.63522 230.606L137.412 307.287L270.194 230.617L270.198 77.2698L137.419 0.593445" fill="url(#paint6_radial_1_271)"/>
<path d="M118.872 37.0314C124.354 37.0314 129.837 37.0314 135.319 37.0314C135.319 27.5383 135.319 18.0452 135.319 8.55211C129.837 18.0452 124.354 27.5383 118.872 37.0314Z" fill="white"/>
<path d="M80.6044 37.0683C91.8249 37.0683 103.045 37.0683 114.266 37.0683C119.886 27.3452 125.506 17.622 131.126 7.89879C114.285 17.622 97.4449 27.3452 80.6044 37.0683Z" fill="white"/>
<path d="M15.8947 74.4096C41.5419 74.4096 67.189 74.4096 92.8362 74.4096C99.2104 63.3676 105.585 52.3255 111.959 41.2834C99.0825 41.2683 86.206 41.2569 73.3295 41.243C54.1846 52.2986 35.0397 63.3542 15.8947 74.4098V74.4096Z" fill="white"/>
<path d="M97.7193 74.1476C110.2 74.1325 122.68 74.1174 135.16 74.0996C135.16 63.1289 135.16 52.1581 135.16 41.1874C129.022 41.1874 122.884 41.1874 116.746 41.1874C110.404 52.1741 104.062 63.1608 97.7193 74.1476V74.1476Z" fill="white"/>
<path d="M12.9604 79.4847C32.1755 90.5772 51.3905 101.67 70.6056 112.762C77.0106 101.668 83.4157 90.5747 89.8207 79.481C64.2006 79.4822 38.5805 79.4829 12.9604 79.4848V79.4847Z" fill="white"/>
<path d="M74.1305 114.704C83.9619 120.462 93.7933 126.219 103.625 131.977C113.584 114.477 123.544 96.9773 133.503 79.4773C120.395 79.4754 107.287 79.4735 94.1797 79.4697C87.4966 91.2144 80.8135 102.959 74.1305 114.704V114.704Z" fill="white"/>
<path d="M107.135 134.052C116.471 139.437 125.806 144.822 135.142 150.207C135.143 128.651 135.144 107.094 135.146 85.5378C125.809 101.709 116.472 117.88 107.135 134.052H107.135Z" fill="white"/>
<path d="M139.519 37.0314C145.002 37.0314 150.484 37.0314 155.966 37.0314C150.485 27.5383 145.004 18.0452 139.523 8.55211C139.522 18.0452 139.521 27.5383 139.519 37.0314H139.519Z" fill="white"/>
<path d="M160.572 37.0683C171.793 37.0683 183.013 37.0683 194.234 37.0683C177.394 27.3452 160.555 17.622 143.716 7.89879C149.335 17.622 154.954 27.3452 160.572 37.0683V37.0683Z" fill="white"/>
<path d="M162.879 41.2834C169.253 52.3255 175.628 63.3676 182.002 74.4096C207.65 74.4096 233.299 74.4096 258.947 74.4096C239.801 63.354 220.655 52.2984 201.509 41.2428C188.632 41.2579 175.756 41.2693 162.879 41.2832V41.2834Z" fill="white"/>
<path d="M139.678 74.0996C152.158 74.1147 164.639 74.1298 177.119 74.1476C170.777 63.1609 164.434 52.1742 158.092 41.1875C151.954 41.1875 145.816 41.1875 139.678 41.1875C139.678 52.1582 139.678 63.1289 139.678 74.0996V74.0996Z" fill="white"/>
<path d="M204.233 112.762C223.448 101.67 242.663 90.5772 261.878 79.4847C236.258 79.4835 210.638 79.4828 185.018 79.4809C191.423 90.5747 197.828 101.668 204.233 112.762V112.762Z" fill="white"/>
<path d="M141.335 79.4773C151.296 96.9773 161.256 114.477 171.217 131.977C181.048 126.219 190.88 120.462 200.711 114.704C194.027 102.959 187.343 91.2145 180.658 79.4699C167.551 79.4718 154.443 79.4737 141.335 79.4775V79.4773Z" fill="white"/>
<path d="M139.696 150.207C149.032 144.822 158.368 139.437 167.703 134.052C158.366 117.88 149.03 101.709 139.693 85.5378C139.694 107.094 139.695 128.651 139.696 150.207H139.696Z" fill="white"/>
<path d="M239.695 210.546C247.917 215.293 256.14 220.04 264.362 224.786C258.881 215.293 253.4 205.8 247.919 196.307C245.177 201.053 242.436 205.8 239.695 210.546Z" fill="white"/>
<path d="M250.189 192.298C255.8 202.028 261.411 211.757 267.023 221.486C267.023 202.039 267.023 182.591 267.023 163.144C261.411 172.862 255.8 182.58 250.189 192.298V192.298Z" fill="white"/>
<path d="M228.567 155.064C234.942 166.107 241.318 177.151 247.693 188.194C254.144 177.046 260.594 165.898 267.045 154.75C267.043 132.645 267.041 110.54 267.037 88.4352C254.214 110.645 241.39 132.855 228.567 155.064H228.567Z" fill="white"/>
<path d="M207.673 191.881C217.174 197.366 226.676 202.851 236.178 208.336C239.246 203.019 242.315 197.703 245.383 192.387C239.039 181.402 232.696 170.416 226.352 159.431C220.126 170.247 213.899 181.064 207.673 191.881V191.881Z" fill="white"/>
<path d="M206.469 116.638C212.874 127.731 219.279 138.825 225.684 149.919C238.493 127.733 251.302 105.546 264.111 83.3602C244.897 94.4527 225.683 105.545 206.469 116.638V116.638Z" fill="white"/>
<path d="M173.317 135.62C183.493 152.997 193.669 170.374 203.845 187.751C210.399 176.403 216.953 165.054 223.507 153.706C216.678 142.044 209.85 130.382 203.022 118.719C193.12 124.353 183.219 129.987 173.317 135.62Z" fill="white"/>
<path d="M141.774 153.809C160.441 164.587 179.107 175.364 197.773 186.142C188.438 169.973 179.102 153.804 169.767 137.636C160.436 143.027 151.105 148.418 141.774 153.809V153.809Z" fill="white"/>
<path d="M229.372 228.429C240.335 228.429 251.298 228.429 262.262 228.429C254.039 223.681 245.817 218.934 237.595 214.186C234.854 218.934 232.113 223.681 229.372 228.429Z" fill="white"/>
<path d="M227.039 232.401C221.427 242.119 215.816 251.837 210.205 261.555C227.046 251.831 243.888 242.106 260.73 232.382C249.5 232.386 238.269 232.397 227.039 232.401V232.401Z" fill="white"/>
<path d="M145.51 298.922C164.657 287.872 183.804 276.821 202.952 265.77C209.379 254.61 215.806 243.45 222.233 232.29C209.482 232.29 196.731 232.29 183.98 232.29C171.157 254.501 158.333 276.712 145.51 298.922V298.922Z" fill="white"/>
<path d="M186.653 228.193C199.338 228.193 212.024 228.193 224.71 228.193C227.78 222.877 230.849 217.56 233.919 212.244C224.417 206.76 214.915 201.275 205.414 195.79C199.16 206.591 192.906 217.392 186.653 228.193Z" fill="white"/>
<path d="M139.652 298.926C152.462 276.74 165.272 254.554 178.082 232.367C165.272 232.367 152.462 232.367 139.652 232.367C139.652 254.554 139.652 276.74 139.652 298.926Z" fill="white"/>
<path d="M139.733 228.344C153.247 228.427 166.761 228.509 180.275 228.591C186.825 217.24 193.375 205.89 199.925 194.539C179.791 194.414 159.657 194.29 139.523 194.166C139.593 205.559 139.663 216.951 139.733 228.344H139.733Z" fill="white"/>
<path d="M139.482 190.084C158.156 190.084 176.83 190.084 195.503 190.084C176.835 179.306 158.166 168.529 139.497 157.751C139.493 168.529 139.49 179.306 139.482 190.084H139.482Z" fill="white"/>
<path d="M12.5766 228.425C23.5399 228.425 34.5032 228.425 45.4666 228.425C42.7255 223.678 39.9843 218.93 37.2431 214.182C29.021 218.93 20.7988 223.678 12.5766 228.425Z" fill="white"/>
<path d="M64.63 261.548C59.0185 251.831 53.407 242.114 47.7956 232.397C36.5665 232.393 25.3374 232.386 14.1083 232.378C30.9489 242.101 47.7894 251.824 64.63 261.547V261.548Z" fill="white"/>
<path d="M71.8864 265.767C91.0338 276.817 110.181 287.868 129.329 298.919C116.505 276.708 103.681 254.497 90.8578 232.286C78.1056 232.286 65.3534 232.286 52.6012 232.286C59.0296 243.446 65.458 254.607 71.8864 265.767V265.767Z" fill="white"/>
<path d="M40.9193 212.241C43.9877 217.557 47.0561 222.873 50.1246 228.189C62.8116 228.189 75.4986 228.189 88.1856 228.189C81.9306 217.388 75.6757 206.587 69.4208 195.786C59.9203 201.271 50.4198 206.756 40.9193 212.241V212.241Z" fill="white"/>
<path d="M135.182 298.922C135.182 276.736 135.182 254.55 135.182 232.364C122.374 232.364 109.565 232.364 96.756 232.364C109.565 254.55 122.374 276.736 135.182 298.922V298.922Z" fill="white"/>
<path d="M74.9129 194.535C81.4631 205.886 88.0133 217.237 94.5635 228.588C108.077 228.505 121.591 228.423 135.105 228.341C135.175 216.948 135.245 205.555 135.315 194.162C115.181 194.286 95.0472 194.411 74.9131 194.535L74.9129 194.535Z" fill="white"/>
<path d="M79.3347 190.08C98.0084 190.08 116.682 190.08 135.356 190.08C135.348 179.303 135.348 168.525 135.341 157.747C116.672 168.525 98.0032 179.303 79.3343 190.08H79.3347Z" fill="white"/>
<path d="M10.4764 224.782C18.6986 220.036 26.9208 215.289 35.143 210.543C32.4019 205.796 29.6607 201.05 26.9196 196.303C21.4385 205.796 15.9575 215.289 10.4764 224.782V224.782Z" fill="white"/>
<path d="M7.81525 221.483C13.4255 211.753 19.0357 202.024 24.646 192.295C19.0357 182.576 13.4255 172.858 7.81525 163.14C7.81525 182.588 7.81525 202.035 7.81525 221.483V221.483Z" fill="white"/>
<path d="M7.7931 154.747C14.2437 165.895 20.6942 177.043 27.1447 188.19C33.5202 177.147 39.8957 166.104 46.2712 155.06C33.4476 132.851 20.6241 110.641 7.80046 88.4315C7.79804 110.537 7.79669 132.642 7.79291 154.747H7.7931Z" fill="white"/>
<path d="M29.4553 192.383C32.5237 197.699 35.5921 203.016 38.6605 208.332C48.1622 202.847 57.6639 197.362 67.1657 191.878C60.939 181.059 54.7124 170.241 48.4858 159.423C42.1423 170.41 35.7988 181.397 29.4553 192.383V192.383Z" fill="white"/>
<path d="M49.1538 149.915C55.5588 138.822 61.9639 127.728 68.3689 116.634C49.1551 105.542 29.9412 94.449 10.7274 83.3565C23.5362 105.543 36.345 127.729 49.1538 149.915V149.915Z" fill="white"/>
<path d="M51.3278 153.702C57.8829 165.049 64.4381 176.397 70.9932 187.744C81.1679 170.368 91.3426 152.992 101.517 135.617C91.6169 129.983 81.7166 124.349 71.8162 118.716C64.9868 130.378 58.1573 142.04 51.3278 153.702V153.702Z" fill="white"/>
<path d="M77.0648 186.138C95.7311 175.361 114.397 164.583 133.064 153.806C123.733 148.414 114.402 143.023 105.072 137.632C95.736 153.801 86.4004 169.969 77.0648 186.138Z" fill="white"/>
</g>
<defs>
<filter id="filter0_d_1_271" x="0.635223" y="0.593414" width="273.563" height="314.693" filterUnits="userSpaceOnUse" color-interpolation-filters="sRGB">
<feFlood flood-opacity="0" result="BackgroundImageFix"/>
<feColorMatrix in="SourceAlpha" type="matrix" values="0 0 0 0 0 0 0 0 0 0 0 0 0 0 0 0 0 0 127 0" result="hardAlpha"/>
<feOffset dy="4"/>
<feGaussianBlur stdDeviation="2"/>
<feComposite in2="hardAlpha" operator="out"/>
<feColorMatrix type="matrix" values="0 0 0 0 0 0 0 0 0 0 0 0 0 0 0 0 0 0 0.25 0"/>
<feBlend mode="normal" in2="BackgroundImageFix" result="effect1_dropShadow_1_271"/>
<feBlend mode="normal" in="SourceGraphic" in2="effect1_dropShadow_1_271" result="shape"/>
</filter>
<radialGradient id="paint0_radial_1_271" cx="0" cy="0" r="1" gradientUnits="userSpaceOnUse" gradientTransform="translate(4.63901 77.2593) rotate(29.8099) scale(152.896 132.86)">
<stop stop-color="#EFC706"/>
<stop offset="1" stop-color="white" stop-opacity="0"/>
</radialGradient>
<radialGradient id="paint1_radial_1_271" cx="0" cy="0" r="1" gradientUnits="userSpaceOnUse" gradientTransform="translate(137.419 0.593468) rotate(89.881) scale(153.077 132.441)">
<stop stop-color="#07EE1A"/>
<stop offset="1" stop-color="white" stop-opacity="0"/>
</radialGradient>
<radialGradient id="paint2_radial_1_271" cx="0" cy="0" r="1" gradientUnits="userSpaceOnUse" gradientTransform="translate(270.197 77.2698) rotate(150.149) scale(153.49 132.441)">
<stop stop-color="#05C3F0"/>
<stop offset="1" stop-color="white" stop-opacity="0"/>
</radialGradient>
<radialGradient id="paint3_radial_1_271" cx="0" cy="0" r="1" gradientUnits="userSpaceOnUse" gradientTransform="translate(270.194 230.616) rotate(-149.971) scale(153.759 132.441)">
<stop stop-color="#3D3DF5"/>
<stop offset="1" stop-color="white" stop-opacity="0"/>
</radialGradient>
<radialGradient id="paint4_radial_1_271" cx="0" cy="0" r="1" gradientUnits="userSpaceOnUse" gradientTransform="translate(137.411 307.287) rotate(-90.1262) scale(153.617 132.442)">
<stop stop-color="#F30201"/>
<stop offset="1" stop-color="white" stop-opacity="0"/>
</radialGradient>
<radialGradient id="paint5_radial_1_271" cx="0" cy="0" r="1" gradientUnits="userSpaceOnUse" gradientTransform="translate(4.63447 230.606) rotate(-30.0673) scale(153.164 133.201)">
<stop stop-color="#F55C01"/>
<stop offset="1" stop-color="white" stop-opacity="0"/>
</radialGradient>
<radialGradient id="paint6_radial_1_271" cx="0" cy="0" r="1" gradientUnits="userSpaceOnUse" gradientTransform="translate(137.073 153.67) rotate(90.0052) scale(153.341 133.201)">
<stop stop-color="#A541B4"/>
<stop offset="1" stop-color="white" stop-opacity="0"/>
</radialGradient>
</defs>
</svg>
