<?xml version="1.0" encoding="UTF-8" standalone="no"?>
<svg
   width="280"
   height="270"
   viewBox="0 0 280 270"
   fill="none"
   version="1.1"
   id="svg1670"
   sodipodi:docname="CEO20.svg"
   inkscape:version="1.1.2 (b8e25be833, 2022-02-05)"
   xmlns:inkscape="http://www.inkscape.org/namespaces/inkscape"
   xmlns:sodipodi="http://sodipodi.sourceforge.net/DTD/sodipodi-0.dtd"
   xmlns="http://www.w3.org/2000/svg"
   xmlns:svg="http://www.w3.org/2000/svg">
  <sodipodi:namedview
     id="namedview1672"
     pagecolor="#ffffff"
     bordercolor="#666666"
     borderopacity="1.0"
     inkscape:pageshadow="2"
     inkscape:pageopacity="0.0"
     inkscape:pagecheckerboard="0"
     showgrid="false"
     inkscape:zoom="2.2030848"
     inkscape:cx="154.78296"
     inkscape:cy="181.10969"
     inkscape:window-width="1920"
     inkscape:window-height="1017"
     inkscape:window-x="-8"
     inkscape:window-y="-8"
     inkscape:window-maximized="1"
     inkscape:current-layer="svg1670" />
  <path
     d="m 140.0005,267.5195 c 76.61,0 138.715,-59.331 138.715,-132.519 0,-73.189 -62.105,-132.52 -138.715,-132.52 -76.611,0 -138.716,59.331 -138.716,132.52 0,73.188 62.105,132.519 138.716,132.519 z"
     fill="#333333"
     id="path1595" />
  <path
     d="m 140.0025,28.7375 -92.011,53.126 -0.003,106.263 92.009,53.136 92.012,-53.129 0.003,-106.263 -92.01,-53.133"
     fill="#ffffff"
     id="path1597" />
  <path
     d="m 140.0025,28.7375 -92.011,53.126 -0.003,106.263 92.009,53.136 92.012,-53.129 0.003,-106.263 -92.01,-53.133"
     fill="url(#paint0_radial_126_747)"
     id="path1599"
     style="fill:url(#paint0_radial_126_747)" />
  <path
     d="m 140.0025,28.7375 -92.011,53.126 -0.003,106.263 92.009,53.136 92.012,-53.129 0.003,-106.263 -92.01,-53.133"
     fill="url(#paint1_radial_126_747)"
     id="path1601"
     style="fill:url(#paint1_radial_126_747)" />
  <path
     d="m 140.0025,28.7375 -92.011,53.126 -0.003,106.263 92.009,53.136 92.012,-53.129 0.003,-106.263 -92.01,-53.133"
     fill="url(#paint2_radial_126_747)"
     id="path1603"
     style="fill:url(#paint2_radial_126_747)" />
  <path
     d="m 140.0025,28.7375 -92.011,53.126 -0.003,106.263 92.009,53.136 92.012,-53.129 0.003,-106.263 -92.01,-53.133"
     fill="url(#paint3_radial_126_747)"
     id="path1605"
     style="fill:url(#paint3_radial_126_747)" />
  <path
     d="m 140.0025,28.7375 -92.011,53.126 -0.003,106.263 92.009,53.136 92.012,-53.129 0.003,-106.263 -92.01,-53.133"
     fill="url(#paint4_radial_126_747)"
     id="path1607"
     style="fill:url(#paint4_radial_126_747)" />
  <path
     d="m 140.0025,28.7375 -92.011,53.126 -0.003,106.263 92.009,53.136 92.012,-53.129 0.003,-106.263 -92.01,-53.133"
     fill="url(#paint5_radial_126_747)"
     id="path1609"
     style="fill:url(#paint5_radial_126_747)" />
  <path
     d="m 140.0025,28.7375 -92.011,53.126 -0.003,106.263 92.009,53.136 92.012,-53.129 0.003,-106.263 -92.01,-53.133"
     fill="url(#paint6_radial_126_747)"
     id="path1611"
     style="fill:url(#paint6_radial_126_747)" />
  <path
     d="m 99.7785,157.3135 c 0.466,2.056 2.633,1.165 4.182,1.345 25.163,0 50.326,0 75.489,0 1.543,-1.434 -0.312,-2.863 -0.93,-4.294 -12.58,-21.792 -25.161,-43.585 -37.742,-65.377 -2.014,-0.626 -2.327,1.697 -3.257,2.949 -12.581,21.792 -25.161,43.584 -37.742,65.377 z"
     fill="#ffffff"
     id="path1613" />
  <path
     d="m 60.9895,78.4855 c 25.355,-0.064 50.709,-0.129 76.064,-0.194 0.034,-14.284 0.069,-28.567 0.103,-42.851 -2.02,-0.583 -3.548,1.474 -5.331,2.162 -23.612,13.628 -47.224,27.256 -70.836,40.884 z"
     fill="#ffffff"
     id="path1615" />
  <path
     d="m 142.8545,35.4405 c 0.099,14.142 0.198,28.284 0.297,42.426 25.271,0.198 50.543,0.396 75.814,0.594 -24.956,-14.405 -49.912,-28.81 -74.868,-43.214 -0.414,0.064 -0.828,0.129 -1.243,0.194 z"
     fill="#ffffff"
     id="path1617" />
  <path
     d="m 54.5595,84.7935 c -1.528,1.414 0.373,2.828 0.955,4.243 12.82,22.204 25.639,44.409 38.458,66.614 13.64,-23.621 27.279,-47.242 40.918,-70.862 -26.777,0.001 -53.554,0.002 -80.331,0.005 z"
     fill="#ffffff"
     id="path1619" />
  <path
     d="m 186.0335,155.6555 c 13.387,-23.188 26.773,-46.375 40.16,-69.563 -0.463,-2.033 -2.637,-1.099 -4.157,-1.3 -25.64,-0.001 -51.28,-0.002 -76.921,-0.005 13.639,23.623 27.279,47.245 40.918,70.868 z"
     fill="#ffffff"
     id="path1621" />
  <path
     d="m 139.2535,234.0785 c 1.991,0.625 2.268,-1.73 3.201,-2.943 12.821,-22.205 25.643,-44.41 38.464,-66.615 -27.277,-0.002 -54.554,-0.003 -81.83,-0.005 13.388,23.188 26.777,46.375 40.165,69.563 z"
     fill="#ffffff"
     id="path1623" />
  <path
     d="m 51.5765,181.3145 c 0.898,2.005 2.624,-0.469 3.964,-0.859 11.297,-6.558 22.593,-13.116 33.89,-19.674 -12.621,-21.991 -25.243,-43.982 -37.864,-65.973 0.004,28.836 0.007,57.671 0.01,86.506 z"
     fill="#ffffff"
     id="path1625" />
  <path
     d="m 55.2135,187.2225 c 0.515,2.038 3.054,2.335 4.543,3.534 23.609,13.636 47.218,27.272 70.827,40.908 -12.736,-21.926 -25.471,-43.852 -38.207,-65.778 -12.387,7.112 -24.775,14.224 -37.163,21.336 z"
     fill="#ffffff"
     id="path1627" />
  <path
     d="m 190.5705,160.7865 c 12.355,7.17 24.711,14.34 37.066,21.51 1.508,-1.461 0.493,-3.809 0.788,-5.697 0.003,-27.263 0.005,-54.527 0.011,-81.791 -12.622,21.993 -25.243,43.985 -37.864,65.978 z"
     fill="#ffffff"
     id="path1629" />
  <path
     d="m 149.4175,231.6645 c 24.972,-14.422 49.943,-28.844 74.914,-43.266 1.29,-1.775 -1.721,-2.031 -2.724,-2.997 -11.328,-6.505 -22.656,-13.01 -33.983,-19.515 -12.736,21.926 -25.471,43.852 -38.207,65.778 z"
     fill="#ffffff"
     id="path1631" />
  <defs
     id="defs1668">
    <radialGradient
       id="paint0_radial_126_747"
       cx="0"
       cy="0"
       r="1"
       gradientUnits="userSpaceOnUse"
       gradientTransform="matrix(91.931518,52.670774,-45.768258,79.883874,47.9915,81.8635)">
      <stop
         stop-color="#EFC706"
         id="stop1633" />
      <stop
         offset="1"
         stop-color="white"
         stop-opacity="0"
         id="stop1635" />
    </radialGradient>
    <radialGradient
       id="paint1_radial_126_747"
       cx="0"
       cy="0"
       r="1"
       gradientUnits="userSpaceOnUse"
       gradientTransform="matrix(0.22031144,106.07477,-91.776002,0.19061369,140.0025,28.7375)">
      <stop
         stop-color="#07EE1A"
         id="stop1638" />
      <stop
         offset="1"
         stop-color="white"
         stop-opacity="0"
         id="stop1640" />
    </radialGradient>
    <radialGradient
       id="paint2_radial_126_747"
       cx="0"
       cy="0"
       r="1"
       gradientUnits="userSpaceOnUse"
       gradientTransform="matrix(-92.250182,52.941279,-45.681253,-79.599586,232.0125,81.8705)">
      <stop
         stop-color="#05C3F0"
         id="stop1643" />
      <stop
         offset="1"
         stop-color="white"
         stop-opacity="0"
         id="stop1645" />
    </radialGradient>
    <radialGradient
       id="paint3_radial_126_747"
       cx="0"
       cy="0"
       r="1"
       gradientUnits="userSpaceOnUse"
       gradientTransform="matrix(-92.246299,-53.320697,45.928323,-79.457284,232.0095,188.1335)">
      <stop
         stop-color="#3D3DF5"
         id="stop1648" />
      <stop
         offset="1"
         stop-color="white"
         stop-opacity="0"
         id="stop1650" />
    </radialGradient>
    <radialGradient
       id="paint4_radial_126_747"
       cx="0"
       cy="0"
       r="1"
       gradientUnits="userSpaceOnUse"
       gradientTransform="matrix(-0.23446717,-106.44974,91.775977,-0.2021466,139.9975,241.2625)">
      <stop
         stop-color="#F30201"
         id="stop1653" />
      <stop
         offset="1"
         stop-color="white"
         stop-opacity="0"
         id="stop1655" />
    </radialGradient>
    <radialGradient
       id="paint5_radial_126_747"
       cx="0"
       cy="0"
       r="1"
       gradientUnits="userSpaceOnUse"
       gradientTransform="matrix(91.854075,-53.175929,46.245112,79.882045,47.9885,188.1265)">
      <stop
         stop-color="#F55C01"
         id="stop1658" />
      <stop
         offset="1"
         stop-color="white"
         stop-opacity="0"
         id="stop1660" />
    </radialGradient>
    <radialGradient
       id="paint6_radial_126_747"
       cx="0"
       cy="0"
       r="1"
       gradientUnits="userSpaceOnUse"
       gradientTransform="matrix(-0.00964367,106.258,-92.3025,-0.00837711,139.7625,134.8125)">
      <stop
         stop-color="#A541B4"
         id="stop1663" />
      <stop
         offset="1"
         stop-color="white"
         stop-opacity="0"
         id="stop1665" />
    </radialGradient>
  </defs>
</svg>
